<?xml version="1.0" encoding="utf-8"?>
<svg id="master-artboard" viewBox="0 0 1400 980" version="1.1" xmlns="http://www.w3.org/2000/svg" x="0px" y="0px" style="enable-background:new 0 0 336 235.2;" width="1400px" height="980px"><title>abstract</title><path d="M 701 661 H 1095.740234 V 663 H 701 V 661 Z" fill="#3f3d56" transform="matrix(1.277674913406372, 0, 0, 1.277674913406372, 0, 65.79000091552734)"/><path d="M 474 429 L 474 216 L 718 216 L 718 0 L 0 0 L 0 643 L 718 643 L 718 429 L 474 429 Z" fill="#3f3d56" transform="matrix(1.277674913406372, 0, 0, 1.277674913406372, 0, 65.79000091552734)"/><path d="M 718 216 L 718 0 L 469 0 L 469 213 L 249 213 L 249 0 L 0 0 L 0 216 L 225 216 L 225 429 L 0 429 L 0 643 L 476 643 L 476 429 L 474 429 L 474 216 L 718 216 Z" opacity="0.1" transform="matrix(1.277674913406372, 0, 0, 1.277674913406372, 0, 65.79000091552734)"/><path d="M224.12988,117.98284a172.00382,172.00382,0,0,1-172,172v-172Z" transform="matrix(1.277674913406372, 0, 0, 1.277674913406372, -66.60503863440226, -84.95371587081718)" fill="#6c63ff" style="fill: rgb(61, 86, 110);"/><path d="M132.12988,117.98284a80.00357,80.00357,0,0,1-80,80v44a124.00426,124.00426,0,0,0,124-124Z" transform="matrix(1.277674913406372, 0, 0, 1.277674913406372, -66.60503863440226, -84.95371587081718)" opacity="0.1"/><path d="M 718 60 L 718 29 L 553 29 L 553 0 L 517 0 L 517 29 L 517 60 L 517 84 L 517 115 L 553 115 L 718 115 L 718 84 L 553 84 L 553 60 L 718 60 Z" fill="#d0cde1" transform="matrix(1.277674913406372, 0, 0, 1.277674913406372, 0, 65.79000091552734)"/><path d="M481.12988,448.98284a81,81,0,1,0-92,80.23639V642.98284H256.36627a81,81,0,1,0,0,22H389.12988v48h22v-48h45v-22h-45V529.21923A81.00034,81.00034,0,0,0,481.12988,448.98284Z" transform="matrix(1.277674913406372, 0, 0, 1.277674913406372, -66.60503863440226, -84.95371587081718)" fill="#d0cde1"/><path d="M 626.5 445.26300048828125 L 662.5079956054688 507.6310119628906 L 698.5170288085938 570 L 626.5 570 L 554.4829711914062 570 L 590.4920043945312 507.6310119628906 L 626.5 445.26300048828125 Z" fill="#d0cde1" transform="matrix(1.277674913406372, 0, 0, 1.277674913406372, 0, 65.79000091552734)" style="fill: rgb(255, 70, 3);"/><path d="M 610.5 578 L 538.4829711914062 578 L 574.4920043945312 515.6309814453125 L 574.7420043945312 515.197998046875 L 561.5 492.26300048828125 L 525.4920043945312 554.6309814453125 L 489.4830017089844 617 L 561.5 617 L 633.5170288085938 617 L 611 578 L 610.5 578 Z" fill="#6c63ff" transform="matrix(1.277674913406372, 0, 0, 1.277674913406372, 0, 65.79000091552734)" style="fill: rgb(224, 147, 31);"/><path d="M 159 345 L 159 291 L 186 291 L 186 259 L 52 259 L 52 393 L 186 393 L 186 345 L 159 345 Z" fill="#d0cde1" transform="matrix(1.277674913406372, 0, 0, 1.277674913406372, 0, 65.79000091552734)"/><path d="M 89 234 H 139 V 284 H 89 V 234 Z" fill="#6c63ff" transform="matrix(1.277674913406372, 0, 0, 1.277674913406372, 0, 65.79000091552734)" style="fill: rgb(61, 86, 110);"/><path d="M989.162,357.83165,972.618,401.5551l-59.664,20.935s-36-4-36,16c0,14.18058,43,2,43,2l78.66169-23.57271,24.816-61.44917Z" transform="matrix(1.277674913406372, 0, 0, 1.277674913406372, -66.60503863440226, -84.95371587081718)" fill="#ffb8b8"/><path d="M 635 228 H 869 V 430 H 635 V 228 Z" fill="#6c63ff" transform="matrix(1.3559246687987745, 0, 0, 1.3559246687987745, -58.84381605508667, 32.142606096794275)" style="fill: rgb(71, 101, 129);"/><path d="M 747.5 289.26300048828125 L 783.5079956054688 351.6310119628906 L 819.5170288085938 414 L 747.5 414 L 675.4829711914062 414 L 711.4920043945312 351.6310119628906 L 747.5 289.26300048828125 Z" fill="#3f3d56" transform="matrix(1.277674913406372, 0, 0, 1.277674913406372, 0, 65.79000091552734)"/><path d="M 747.3309936523438 334.4150085449219 L 763.6649780273438 362.7080078125 L 780 391 L 747.3309936523438 391 L 714.6610107421875 391 L 730.9959716796875 362.7080078125 L 747.3309936523438 334.4150085449219 Z" fill="#d0cde1" transform="matrix(1.277674913406372, 0, 0, 1.277674913406372, 0, 65.79000091552734)"/><path d="M 747.3309936523438 242.4149932861328 L 763.6649780273438 270.7080078125 L 780 299 L 747.3309936523438 299 L 714.6610107421875 299 L 730.9959716796875 270.7080078125 L 747.3309936523438 242.4149932861328 Z" fill="#d0cde1" transform="matrix(1.277674913406372, 0, 0, 1.277674913406372, 0, 65.79000091552734)" style="fill: rgb(255, 122, 20);"/><path d="M1024.15387,329.42035s-16.544-2.36343-24.816,28.36116-10.63544,33.088-10.63544,33.088,48.45031,7.09029,49.632,4.72686S1048.96988,336.51064,1024.15387,329.42035Z" transform="matrix(1.277674913406372, 0, 0, 1.277674913406372, -66.60503863440226, -84.95371587081718)" fill="#2f2e41"/><path d="M 994.476551 167.714066 A 31.9063 31.9063 0 0 1 962.570251 199.620365 A 31.9063 31.9063 0 0 1 930.663952 167.714066 A 31.9063 31.9063 0 0 1 962.570251 135.807766 A 31.9063 31.9063 0 0 1 994.476551 167.714066 Z" fill="#ffb8b8" transform="matrix(1.277674913406372, 0, 0, 1.277674913406372, 0, 65.79000091552734)"/><path d="M1000.51957,311.69463s10.63544,27.17944,7.09029,30.72459,43.72345,8.272,43.72345,8.272,3.54515-17.72572-10.63543-28.36116c0,0-5.90858-17.72572-4.72686-21.27087S1000.51957,311.69463,1000.51957,311.69463Z" transform="matrix(1.277674913406372, 0, 0, 1.277674913406372, -66.60503863440226, -84.95371587081718)" fill="#ffb8b8"/><path d="M1028.88073,323.51178a85.216,85.216,0,0,0-31.9063,21.27087c-14.18058,15.36229-21.27087,20.08915-21.27087,20.08915s-16.544,5.90857-10.63544,34.26973c2.95429,14.18058.88629,30.13373-1.92028,42.54174a265.8223,265.8223,0,0,0-6.35172,58.65559v12.2473s-108.71777,228.071-72.08461,243.43328,69.72118,20.08915,72.08461,16.544,44.90517-187.89267,44.90517-187.89267,11.81715,197.34639,41.36,197.34639,77.99318-8.272,77.99318-8.272l-60.26746-236.343s14.18058-40.17831-21.27087-68.53947l-4.72686-12.99886c19.60447.01,28.56614-124.06968,8.272-134.7155C1043.06131,321.14835,1038.33445,317.6032,1028.88073,323.51178Z" transform="matrix(1.277674913406372, 0, 0, 1.277674913406372, -66.60503863440226, -84.95371587081718)" fill="#2f2e41"/><path d="M999.33786,387.32438l-16.544,43.72345-59.664,20.935s-36-4-36,16c0,14.18058,43,2,43,2l78.6617-23.57271,24.816-61.44918Z" transform="matrix(1.277674913406372, 0, 0, 1.277674913406372, -66.60503863440226, -84.95371587081718)" fill="#ffb8b8"/><path d="M 889.303911 652.217163 A 20.68001 11.81715 0 0 1 868.623901 664.034313 A 20.68001 11.81715 0 0 1 847.943892 652.217163 A 20.68001 11.81715 0 0 1 868.623901 640.400013 A 20.68001 11.81715 0 0 1 889.303911 652.217163 Z" fill="#2f2e41" transform="matrix(1.277674913406372, 0, 0, 1.277674913406372, 0, 65.79000091552734)"/><path d="M 1047.653765 652.217163 A 20.68001 11.81715 0 0 1 1026.973755 664.034313 A 20.68001 11.81715 0 0 1 1006.293745 652.217163 A 20.68001 11.81715 0 0 1 1026.973755 640.400013 A 20.68001 11.81715 0 0 1 1047.653765 652.217163 Z" fill="#2f2e41" transform="matrix(1.277674913406372, 0, 0, 1.277674913406372, 0, 65.79000091552734)"/><path d="M1027.01734,240.95422h-.00012a25.34145,25.34145,0,0,0-4.89258.48651,21.44172,21.44172,0,0,0-9.34021-2.15271h-.84777c-16.34473,0-29.59461,14.7901-29.59461,33.03461v.00006h5.47669l.88452-6.73224L990,272.32269h4.56226a64.57589,64.57589,0,0,0-2.119,16.55036v33.62384h8.28027l4.79395-12.45795-1.19849,12.45795h53.22314l4.35816-11.32538-1.0896,11.32538h5.99243V296.09613C1066.80311,265.64215,1048.99037,240.95422,1027.01734,240.95422Z" transform="matrix(1.277674913406372, 0, 0, 1.277674913406372, -66.60503863440226, -84.95371587081718)" fill="#2f2e41"/></svg>