<?xml version="1.0" encoding="utf-8"?>
<svg id="master-artboard" viewBox="0 0 1400 980" version="1.1" xmlns="http://www.w3.org/2000/svg" x="0px" y="0px" style="enable-background:new 0 0 336 235.2;" width="1400px" height="980px" xmlns:xlink="http://www.w3.org/1999/xlink"><defs><linearGradient id="85112d37-9806-4565-a0ea-8879143619cd" x1="643.38" y1="527.87" x2="643.38" y2="439.13" gradientUnits="userSpaceOnUse"><stop offset="0" stop-color="gray" stop-opacity="0.25"/><stop offset="0.54" stop-color="gray" stop-opacity="0.12"/><stop offset="1" stop-color="gray" stop-opacity="0.1"/></linearGradient><linearGradient id="df208e3c-a3f5-4fc2-8354-a8814a1a7545" x1="601.44" y1="846.53" x2="601.44" y2="825.32" xlink:href="#85112d37-9806-4565-a0ea-8879143619cd"/><linearGradient id="f31dc2d4-0d93-40f6-a24d-a9bceb1557a5" x1="567.25" y1="842.29" x2="567.25" y2="821.08" xlink:href="#85112d37-9806-4565-a0ea-8879143619cd"/><linearGradient id="f0ebc0e0-65f1-47cb-b776-261c995964f9" x1="561.22" y1="836.11" x2="561.22" y2="827.95" xlink:href="#85112d37-9806-4565-a0ea-8879143619cd"/><linearGradient id="93f025d2-5adc-499b-9d9a-f633acaed05b" x1="597.88" y1="835.38" x2="597.88" y2="826.89" xlink:href="#85112d37-9806-4565-a0ea-8879143619cd"/><linearGradient id="7be7b514-f490-43c2-8f6f-9e415e928302" x1="584.67" y1="835.03" x2="584.67" y2="620.5" xlink:href="#85112d37-9806-4565-a0ea-8879143619cd"/><linearGradient id="33a20f31-fcc2-4a92-ab49-195e19cfaaaa" x1="599.49" y1="728.89" x2="599.49" y2="728.32" xlink:href="#85112d37-9806-4565-a0ea-8879143619cd"/><linearGradient id="de6a0646-a91b-46a0-9afb-f46952816772" x1="600.1" y1="734.92" x2="600.1" y2="733.61" xlink:href="#85112d37-9806-4565-a0ea-8879143619cd"/><linearGradient id="04d37134-577c-4403-8fe6-8ed7eba6d70a" x1="562.27" y1="733.65" x2="562.27" y2="731.44" xlink:href="#85112d37-9806-4565-a0ea-8879143619cd"/><linearGradient id="8776c570-d85f-4376-8246-d2602742eda7" x1="542.46" y1="629.42" x2="542.46" y2="579.01" xlink:href="#85112d37-9806-4565-a0ea-8879143619cd"/><linearGradient id="6e2a29df-8464-4633-8e1b-f9ea2b2d5fc1" x1="522.24" y1="440.19" x2="522.24" y2="398.37" xlink:href="#85112d37-9806-4565-a0ea-8879143619cd"/><linearGradient id="e33e2ef7-473f-4cd6-b28c-ecb98abedfac" x1="587.13" y1="513.38" x2="587.13" y2="481.17" xlink:href="#85112d37-9806-4565-a0ea-8879143619cd"/><linearGradient id="f5b9f2bb-2c0e-46fc-9c28-4202a4412ecd" x1="584.99" y1="635.45" x2="584.99" y2="620.5" xlink:href="#85112d37-9806-4565-a0ea-8879143619cd"/><linearGradient id="f29e8a79-8a58-4993-a70a-b992b7a832bd" x1="582.84" y1="633.82" x2="582.84" y2="496.72" xlink:href="#85112d37-9806-4565-a0ea-8879143619cd"/><linearGradient id="c04eac17-4773-4368-bae0-7265c9e76607" x1="540.32" y1="582.71" x2="540.32" y2="532.75" xlink:href="#85112d37-9806-4565-a0ea-8879143619cd"/><linearGradient id="3c970590-dd1c-4631-9f7e-f9b23acb9d2d" x1="540.3" y1="582.71" x2="540.3" y2="572.18" xlink:href="#85112d37-9806-4565-a0ea-8879143619cd"/><linearGradient id="cab065ab-ef79-48f8-9c0a-09d4e188359a" x1="581.11" y1="582.41" x2="581.11" y2="570.86" xlink:href="#85112d37-9806-4565-a0ea-8879143619cd"/><linearGradient id="d718cee3-9c00-4171-a05a-14de0f48f667" x1="609.77" y1="606.98" x2="609.77" y2="588.96" xlink:href="#85112d37-9806-4565-a0ea-8879143619cd"/><linearGradient id="8f995e39-4892-4832-8cdc-33159eeee44f" x1="567.9" y1="608.02" x2="567.9" y2="605.46" xlink:href="#85112d37-9806-4565-a0ea-8879143619cd"/><linearGradient id="ba1bc673-7a43-4daf-b3ca-7287eecc4ed3" x1="604.87" y1="541.68" x2="604.87" y2="524.88" xlink:href="#85112d37-9806-4565-a0ea-8879143619cd"/><linearGradient id="d005e3fc-d6fe-48e9-9aec-3eb63feaa3ce" x1="544.43" y1="525.13" x2="544.43" y2="513.92" xlink:href="#85112d37-9806-4565-a0ea-8879143619cd"/><linearGradient id="8f44d692-9086-4f84-9d84-a3a660414f29" x1="538.8" y1="564.15" x2="538.8" y2="557.55" xlink:href="#85112d37-9806-4565-a0ea-8879143619cd"/><linearGradient id="34b8f87b-81de-41c4-ae6e-1a72ec4cce6a" x1="539.06" y1="552.57" x2="539.06" y2="547.23" xlink:href="#85112d37-9806-4565-a0ea-8879143619cd"/><linearGradient id="aa860263-0dba-4287-a003-5e39ffdf9739" x1="603.19" y1="655.98" x2="603.19" y2="652.51" xlink:href="#85112d37-9806-4565-a0ea-8879143619cd"/><linearGradient id="b0bcbe2d-d614-49a6-948e-a79a535d5283" x1="565.55" y1="657.11" x2="565.55" y2="654.23" xlink:href="#85112d37-9806-4565-a0ea-8879143619cd"/><linearGradient id="1ff6b976-6854-4bdb-b047-1feedf56385b" x1="599.22" y1="663.17" x2="599.22" y2="662.83" xlink:href="#85112d37-9806-4565-a0ea-8879143619cd"/><linearGradient id="4cf659f5-9d55-4c93-bc8b-15c9a9403b0a" x1="558.65" y1="671.73" x2="558.65" y2="667.08" xlink:href="#85112d37-9806-4565-a0ea-8879143619cd"/><linearGradient id="ddaf5e28-e506-4c9e-ad2d-295c8c59bc2c" x1="582.1" y1="584.56" x2="582.1" y2="434.29" xlink:href="#85112d37-9806-4565-a0ea-8879143619cd"/><linearGradient id="ba62206a-581b-4ba2-9912-7589baa777ba" x1="542.98" y1="501.81" x2="542.98" y2="477.61" xlink:href="#85112d37-9806-4565-a0ea-8879143619cd"/><linearGradient id="1d302a68-2b53-4616-82c0-9d32bf7b435e" x1="547.17" y1="562.43" x2="547.17" y2="534.56" xlink:href="#85112d37-9806-4565-a0ea-8879143619cd"/><linearGradient id="0da18ff1-7e19-420b-8354-a9457e98fcb1" x1="581.02" y1="584.83" x2="581.02" y2="554.96" xlink:href="#85112d37-9806-4565-a0ea-8879143619cd"/><linearGradient id="86e6b7f7-4a58-4701-a141-596d9c5da905" x1="618.43" y1="484.19" x2="618.43" y2="462.35" xlink:href="#85112d37-9806-4565-a0ea-8879143619cd"/><linearGradient id="3a8eff62-0f79-4f94-b7ff-acb207059ac5" x1="612.82" y1="534.25" x2="612.82" y2="509.77" xlink:href="#85112d37-9806-4565-a0ea-8879143619cd"/><linearGradient id="f56efedd-ee8b-4d2e-8bf5-876fc33e5faf" x1="638.86" y1="531.3" x2="638.86" y2="507.86" xlink:href="#85112d37-9806-4565-a0ea-8879143619cd"/><linearGradient id="4176ab9b-a8a4-47bf-bcab-5d6531458a22" x1="647.52" y1="531.06" x2="647.52" y2="508.4" xlink:href="#85112d37-9806-4565-a0ea-8879143619cd"/></defs><rect id="ee-background" x="0" y="0" width="1400" height="980" style="fill: white; fill-opacity: 0; pointer-events: none;"/>


<path class="st1" d="M238.5,136.2c0,1.2-1,2.2-2.2,2.2h-131c-1.2,0-2.2-1-2.2-2.2V61.8c0-1.2,1-2.2,2.2-2.2h131&#10;&#9;&#9;c1.2,0,2.2,1,2.2,2.2V136.2z" style="opacity: 0.15; fill: rgb(18, 16, 11);" transform="matrix(4.177751541137695, 0, 0, 4.177751541137695, -2, 1.4210854715202004e-14)"/><path class="st2" d="M235.7,133.4c0,1.2-1,2.2-2.2,2.2h-131c-1.2,0-2.2-1-2.2-2.2V59c0-1.2,1-2.2,2.2-2.2h131c1.2,0,2.2,1,2.2,2.2&#10;&#9;&#9;V133.4z" style="fill: rgb(242, 242, 243);" transform="matrix(4.177751541137695, 0, 0, 4.177751541137695, -2, 1.4210854715202004e-14)"/><path d="M 110.400002 63.799999 H 225.599998 V 111.299999 H 110.400002 V 63.799999 Z" class="st3" style="fill: rgb(216, 218, 216);" transform="matrix(4.177751541137695, 0, 0, 4.177751541137695, -2, 1.4210854715202004e-14)"/><path d="M 150.100006 114.400002 H 185.900005 V 132.800001 H 150.100006 V 114.400002 Z" class="st3" style="fill: rgb(216, 218, 216);" transform="matrix(4.177751541137695, 0, 0, 4.177751541137695, -2, 1.4210854715202004e-14)"/><g transform="matrix(4.177751541137695, 0, 0, 4.177751541137695, -2, 1.4210854715202004e-14)">
		<path d="M 114.599998 67.400002 H 121.199998 V 74.000001 H 114.599998 V 67.400002 Z" class="st4" style="fill: rgb(114, 120, 114);"/>
		<path d="M 123.5 67.400002 H 130.1 V 74.000001 H 123.5 V 67.400002 Z" class="st4" style="fill: rgb(114, 120, 114);"/>
		<path d="M 131.800003 67.400002 H 138.400003 V 74.000001 H 131.800003 V 67.400002 Z" class="st4" style="fill: rgb(114, 120, 114);"/>
		<path d="M 148.399994 67.400002 H 154.999994 V 74.000001 H 148.399994 V 67.400002 Z" class="st4" style="fill: rgb(114, 120, 114);"/>
		<path d="M 140.100006 67.400002 H 146.700006 V 74.000001 H 140.100006 V 67.400002 Z" class="st4" style="fill: rgb(114, 120, 114);"/>
		<path d="M 156.699997 67.400002 H 163.299997 V 74.000001 H 156.699997 V 67.400002 Z" class="st4" style="fill: rgb(114, 120, 114);"/>
		<path d="M 164.899994 67.400002 H 171.499994 V 74.000001 H 164.899994 V 67.400002 Z" class="st4" style="fill: rgb(114, 120, 114);"/>
		<path d="M 173.199997 67.400002 H 179.799997 V 74.000001 H 173.199997 V 67.400002 Z" class="st4" style="fill: rgb(114, 120, 114);"/>
		<path d="M 181.5 67.400002 H 188.1 V 74.000001 H 181.5 V 67.400002 Z" class="st4" style="fill: rgb(114, 120, 114);"/>
		<path d="M 189.800003 67.400002 H 196.400003 V 74.000001 H 189.800003 V 67.400002 Z" class="st4" style="fill: rgb(114, 120, 114);"/>
		<path d="M 198.100006 67.400002 H 204.700006 V 74.000001 H 198.100006 V 67.400002 Z" class="st4" style="fill: rgb(114, 120, 114);"/>
		<path d="M 128.100006 76 H 134.700006 V 82.6 H 128.100006 V 76 Z" class="st4" style="fill: rgb(114, 120, 114);"/>
		<path d="M 114.599998 76 H 126.499998 V 82.6 H 114.599998 V 76 Z" class="st4" style="fill: rgb(114, 120, 114);"/>
		<path d="M 136.399994 76 H 142.999994 V 82.6 H 136.399994 V 76 Z" class="st4" style="fill: rgb(114, 120, 114);"/>
		<path d="M 153 76 H 159.6 V 82.6 H 153 V 76 Z" class="st4" style="fill: rgb(114, 120, 114);"/>
		<path d="M 144.699997 76 H 151.299997 V 82.6 H 144.699997 V 76 Z" class="st4" style="fill: rgb(114, 120, 114);"/>
		<path d="M 161.300003 76 H 167.900003 V 82.6 H 161.300003 V 76 Z" class="st4" style="fill: rgb(114, 120, 114);"/>
		<path d="M 169.5 76 H 176.1 V 82.6 H 169.5 V 76 Z" class="st4" style="fill: rgb(114, 120, 114);"/>
		<path d="M 177.800003 76 H 184.400003 V 82.6 H 177.800003 V 76 Z" class="st4" style="fill: rgb(114, 120, 114);"/>
		<path d="M 186.100006 76 H 192.700006 V 82.6 H 186.100006 V 76 Z" class="st4" style="fill: rgb(114, 120, 114);"/>
		<path d="M 194.399994 76 H 200.999994 V 82.6 H 194.399994 V 76 Z" class="st4" style="fill: rgb(114, 120, 114);"/>
		<path d="M 131.699997 84.300003 H 138.299997 V 90.900003 H 131.699997 V 84.300003 Z" class="st4" style="fill: rgb(114, 120, 114);"/>
		<path d="M 114.599998 84.300003 H 129.599998 V 90.900003 H 114.599998 V 84.300003 Z" class="st4" style="fill: rgb(114, 120, 114);"/>
		<path d="M 140 84.300003 H 146.6 V 90.900003 H 140 V 84.300003 Z" class="st4" style="fill: rgb(114, 120, 114);"/>
		<path d="M 156.600006 84.300003 H 163.200006 V 90.900003 H 156.600006 V 84.300003 Z" class="st4" style="fill: rgb(114, 120, 114);"/>
		<path d="M 148.300003 84.300003 H 154.900003 V 90.900003 H 148.300003 V 84.300003 Z" class="st4" style="fill: rgb(114, 120, 114);"/>
		<path d="M 164.899994 84.300003 H 171.499994 V 90.900003 H 164.899994 V 84.300003 Z" class="st4" style="fill: rgb(114, 120, 114);"/>
		<path d="M 173.199997 84.300003 H 179.799997 V 90.900003 H 173.199997 V 84.300003 Z" class="st4" style="fill: rgb(114, 120, 114);"/>
		<path d="M 181.5 84.300003 H 188.1 V 90.900003 H 181.5 V 84.300003 Z" class="st4" style="fill: rgb(114, 120, 114);"/>
		<path d="M 189.800003 84.300003 H 196.400003 V 90.900003 H 189.800003 V 84.300003 Z" class="st4" style="fill: rgb(114, 120, 114);"/>
		<path d="M 135.199997 92.300003 H 141.799997 V 98.900003 H 135.199997 V 92.300003 Z" class="st4" style="fill: rgb(114, 120, 114);"/>
		<path d="M 114.599998 92.300003 H 133.699999 V 98.900003 H 114.599998 V 92.300003 Z" class="st4" style="fill: rgb(114, 120, 114);"/>
		<path d="M 143.5 92.300003 H 150.1 V 98.900003 H 143.5 V 92.300003 Z" class="st4" style="fill: rgb(114, 120, 114);"/>
		<path d="M 160.100006 92.300003 H 166.700006 V 98.900003 H 160.100006 V 92.300003 Z" class="st4" style="fill: rgb(114, 120, 114);"/>
		<path d="M 151.800003 92.300003 H 158.400003 V 98.900003 H 151.800003 V 92.300003 Z" class="st4" style="fill: rgb(114, 120, 114);"/>
		<path d="M 114.599998 100.800003 H 121.199998 V 107.400003 H 114.599998 V 100.800003 Z" class="st4" style="fill: rgb(114, 120, 114);"/>
		<path d="M 123.400002 100.800003 H 130.000001 V 107.400003 H 123.400002 V 100.800003 Z" class="st4" style="fill: rgb(114, 120, 114);"/>
		<path d="M 140 100.800003 H 146.6 V 107.400003 H 140 V 100.800003 Z" class="st4" style="fill: rgb(114, 120, 114);"/>
		<path d="M 149.199997 100.800003 H 186.999996 V 107.400003 H 149.199997 V 100.800003 Z" class="st4" style="fill: rgb(114, 120, 114);"/>
		<path d="M 131.699997 100.800003 H 138.299997 V 107.400003 H 131.699997 V 100.800003 Z" class="st4" style="fill: rgb(114, 120, 114);"/>
		<path d="M 168.399994 92.300003 H 174.999994 V 98.900003 H 168.399994 V 92.300003 Z" class="st4" style="fill: rgb(114, 120, 114);"/>
		<path d="M 176.699997 92.300003 H 183.299997 V 98.900003 H 176.699997 V 92.300003 Z" class="st4" style="fill: rgb(114, 120, 114);"/>
		<path d="M 185 92.300003 H 191.6 V 98.900003 H 185 V 92.300003 Z" class="st4" style="fill: rgb(114, 120, 114);"/>
		<path d="M 193.300003 92.300003 H 199.900003 V 98.900003 H 193.300003 V 92.300003 Z" class="st4" style="fill: rgb(114, 120, 114);"/>
		<path d="M 189.100006 100.800003 H 195.700006 V 107.400003 H 189.100006 V 100.800003 Z" class="st4" style="fill: rgb(114, 120, 114);"/>
		<path d="M 197.399994 100.800003 H 203.999994 V 107.400003 H 197.399994 V 100.800003 Z" class="st4" style="fill: rgb(114, 120, 114);"/>
		<path d="M 205.699997 100.800003 H 212.299997 V 107.400003 H 205.699997 V 100.800003 Z" class="st4" style="fill: rgb(114, 120, 114);"/>
		<path d="M 214.699997 100.800003 H 221.299997 V 107.400003 H 214.699997 V 100.800003 Z" class="st4" style="fill: rgb(114, 120, 114);"/>
		<path d="M 202.100006 92.300003 H 221.400005 V 98.900003 H 202.100006 V 92.300003 Z" class="st4" style="fill: rgb(114, 120, 114);"/>
		<path d="M 198.100006 84.300003 H 204.700006 V 90.900003 H 198.100006 V 84.300003 Z" class="st4" style="fill: rgb(114, 120, 114);"/>
		<path d="M 206.199997 84.300003 H 221.399997 V 90.900003 H 206.199997 V 84.300003 Z" class="st4" style="fill: rgb(114, 120, 114);"/>
		<path d="M 202.699997 76 H 209.299997 V 82.6 H 202.699997 V 76 Z" class="st4" style="fill: rgb(114, 120, 114);"/>
		<path d="M 211.300003 76 H 221.400003 V 82.6 H 211.300003 V 76 Z" class="st4" style="fill: rgb(114, 120, 114);"/>
		<path d="M 206.399994 67.400002 H 212.999994 V 74.000001 H 206.399994 V 67.400002 Z" class="st4" style="fill: rgb(114, 120, 114);"/>
		<path d="M 214.699997 67.400002 H 221.299997 V 74.000001 H 214.699997 V 67.400002 Z" class="st4" style="fill: rgb(114, 120, 114);"/>
	</g><path d="M 74.800003 9.2 H 261.100006 V 11.9 H 74.800003 V 9.2 Z" class="st3" style="fill: rgb(216, 218, 216);" transform="matrix(4.177751541137695, 0, 0, 4.177751541137695, -2, 1.4210854715202004e-14)"/><path d="M 235.1999969482422 56.900001525878906 L 100.69999694824219 56.900001525878906 L 74.80000305175781 11.899999618530273 L 261.20001220703125 11.899999618530273 Z" class="st4" style="fill: rgb(61, 86, 110);" transform="matrix(4.177751541137695, 0, 0, 4.177751541137695, -2, 1.4210854715202004e-14)"/><path d="M 228.10000610351562 54.29999923706055 L 107.9000015258789 54.29999923706055 L 89.0999984741211 18.100000381469727 L 246.89999389648438 18.100000381469727 Z" class="st2" style="fill: rgb(242, 242, 243);" transform="matrix(4.177751541137695, 0, 0, 4.177751541137695, -2, 1.4210854715202004e-14)"/>
<g transform="matrix(4.177751541137695, 0, 0, 4.177751541137695, -2, 0)">
	<path class="st1" d="M93.4,201.3c0.3,1.2-0.5,2.4-1.6,2.6l-29.9,6.9c-1.2,0.3-2.4-0.5-2.6-1.6l-11-48c-0.3-1.2,0.5-2.4,1.6-2.6&#10;&#9;&#9;l29.9-6.9c1.2-0.3,2.4,0.5,2.6,1.6L93.4,201.3z" style="opacity: 0.15; fill: rgb(18, 16, 11);"/>
	<path class="st2" d="M89.8,199.4c0.3,1.2-0.5,2.4-1.6,2.6l-29.9,6.9c-1.2,0.3-2.4-0.5-2.6-1.6l-11-48c-0.3-1.2,0.5-2.4,1.6-2.6&#10;&#9;&#9;l29.9-6.9c1.2-0.3,2.4,0.5,2.6,1.6L89.8,199.4z" style="fill: rgb(242, 242, 243);"/>
	
		<path d="M 52.200001 157.100006 H 80.400002 V 193.700005 H 52.200001 V 157.100006 Z" transform="matrix(0.9746 -0.2241 0.2241 0.9746 -37.6379 19.3189)" class="st4" style="fill: rgb(114, 120, 114);"/>
	<path d="M 75.500003 199.5 A 3.7 3.7 0 0 1 71.800003 203.2 A 3.7 3.7 0 0 1 68.100003 199.5 A 3.7 3.7 0 0 1 71.800003 195.8 A 3.7 3.7 0 0 1 75.500003 199.5 Z" class="st3" style="fill: rgb(216, 218, 216);"/>
</g>
<g transform="matrix(4.177751541137695, 0, 0, 4.177751541137695, -2, 0)">
	<path d="M 141.300003 152.699997 H 197.100002 V 223.599998 H 141.300003 V 152.699997 Z" class="st1" style="opacity: 0.15; fill: rgb(18, 16, 11);"/>
	<path d="M 138.899994 150.300003 H 194.699993 V 221.200005 H 138.899994 V 150.300003 Z" class="st5" style="fill: rgb(253, 250, 224);"/>
	<g>
		<path d="M 142.800003 155.5 H 191.100002 V 156 H 142.800003 V 155.5 Z" class="st6" style="fill: rgb(221, 185, 116);"/>
		<path d="M 142.800003 160.899994 H 191.100002 V 161.399994 H 142.800003 V 160.899994 Z" class="st6" style="fill: rgb(221, 185, 116);"/>
		<path d="M 142.800003 166.399994 H 191.100002 V 166.899994 H 142.800003 V 166.399994 Z" class="st6" style="fill: rgb(221, 185, 116);"/>
		<path d="M 142.399994 171.899994 H 190.699993 V 172.399994 H 142.399994 V 171.899994 Z" class="st6" style="fill: rgb(221, 185, 116);"/>
		<path d="M 142.699997 177.300003 H 190.999996 V 177.800003 H 142.699997 V 177.300003 Z" class="st6" style="fill: rgb(221, 185, 116);"/>
		<path d="M 142.699997 182.800003 H 190.999996 V 183.300003 H 142.699997 V 182.800003 Z" class="st6" style="fill: rgb(221, 185, 116);"/>
		<path d="M 142.800003 188.199997 H 191.100002 V 188.699997 H 142.800003 V 188.199997 Z" class="st6" style="fill: rgb(221, 185, 116);"/>
		<path d="M 142.699997 193.699997 H 190.999996 V 194.199997 H 142.699997 V 193.699997 Z" class="st6" style="fill: rgb(221, 185, 116);"/>
		<path d="M 142.699997 199.100006 H 190.999996 V 199.600006 H 142.699997 V 199.100006 Z" class="st6" style="fill: rgb(221, 185, 116);"/>
		<path d="M 142.399994 204.600006 H 190.699993 V 205.100006 H 142.399994 V 204.600006 Z" class="st6" style="fill: rgb(221, 185, 116);"/>
		<path d="M 142.399994 210.100006 H 190.699993 V 210.600006 H 142.399994 V 210.100006 Z" class="st6" style="fill: rgb(221, 185, 116);"/>
		<path d="M 142.399994 215.5 H 190.699993 V 216 H 142.399994 V 215.5 Z" class="st6" style="fill: rgb(221, 185, 116);"/>
	</g>
</g>
<g transform="matrix(4.177751541137695, 0, 0, 4.177751541137695, -2, 0)">
	<path class="st1" d="M306.4,93c-0.3,1-1.4,1.6-2.4,1.2L258.5,80c-1-0.3-1.6-1.4-1.2-2.4l18-57.5c0.3-1,1.4-1.6,2.4-1.2l45.5,14.3&#10;&#9;&#9;c1,0.3,1.6,1.4,1.2,2.4L306.4,93z" style="opacity: 0.15; fill: rgb(18, 16, 11);"/>
	<path class="st2" d="M304,90.6c-0.3,1-1.4,1.6-2.4,1.2l-45.5-14.3c-1-0.3-1.6-1.4-1.2-2.4l18-57.5c0.3-1,1.4-1.6,2.4-1.2l45.5,14.3&#10;&#9;&#9;c1,0.3,1.6,1.4,1.2,2.4L304,90.6z" style="fill: rgb(242, 242, 243);"/>
	
		<path d="M 267 26.5 H 311.099998 V 78.200001 H 267 V 26.5 Z" transform="matrix(0.9541 0.2995 -0.2995 0.9541 28.9487 -84.1513)" class="st4" style="fill: rgb(114, 120, 114);"/>
	<path d="M 282.000006 81 A 1.9 1.9 0 0 1 280.100006 82.9 A 1.9 1.9 0 0 1 278.200006 81 A 1.9 1.9 0 0 1 280.100006 79.1 A 1.9 1.9 0 0 1 282.000006 81 Z" class="st3" style="fill: rgb(216, 218, 216);"/>
</g>
<g class="st7" style="opacity: 0.15;" transform="matrix(4.177751541137695, 0, 0, 4.177751541137695, -2, 1.4210854715202004e-14)">
		<path class="st8" d="M22,19.3c0.2,0.1,0.2,0.4,0.1,0.6l0,0c-0.1,0.2-0.4,0.2-0.6,0.1l-3-2.3c-0.2-0.1-0.2-0.4-0.1-0.6l0,0&#10;&#9;&#9;&#9;c0.1-0.2,0.4-0.2,0.6-0.1L22,19.3z" style="fill: rgb(18, 16, 11);"/>
		<path class="st8" d="M11.9,19.8l6.8,5.3l7.7-9.8L19.5,10L11.9,19.8z M25.2,15.3L18.4,24L13,19.7l6.8-8.7L25.2,15.3z" style="fill: rgb(18, 16, 11);"/>
		<path class="st8" d="M88.8,65.6c0,0,6.1,4,2.5,8.6c-3.4,4.4-8.9-0.4-8.9-0.4l-64-50.1l6.4-8.2L88.8,65.6z" style="fill: rgb(18, 16, 11);"/>
		
			<path d="M 51.099998 46.099998 H 61.499998 V 47.299999 H 51.099998 V 46.099998 Z" transform="matrix(0.6169 -0.787 0.787 0.6169 -15.1929 62.1726)" class="st1" style="opacity: 0.15; fill: rgb(18, 16, 11);"/>
		<path d="M 41 28.799999 H 53.8 V 50.599998 H 41 V 28.799999 Z" transform="matrix(0.617 -0.787 0.787 0.617 -13.1066 52.4726)" class="st8" style="fill: rgb(18, 16, 11);"/>
		<g>
			<path d="M 57.100001 39.700001 A 9.7 9.7 0 0 1 47.400002 49.400001 A 9.7 9.7 0 0 1 37.700002 39.700001 A 9.7 9.7 0 0 1 47.400002 30.000001 A 9.7 9.7 0 0 1 57.100001 39.700001 Z" class="st8" style="fill: rgb(18, 16, 11);"/>
			<path d="M 55.000001 39.700001 A 7.6 7.6 0 0 1 47.400002 47.300001 A 7.6 7.6 0 0 1 39.800002 39.700001 A 7.6 7.6 0 0 1 47.400002 32.100001 A 7.6 7.6 0 0 1 55.000001 39.700001 Z" class="st8" style="fill: rgb(18, 16, 11);"/>
			<path d="M 48 36.700001 H 48.6 V 40.300001 H 48 V 36.700001 Z" transform="matrix(0.787 0.617 -0.617 0.787 34.0451 -21.5887)" class="st8" style="fill: rgb(18, 16, 11);"/>
			
				<path d="M 44.900002 34.900002 H 45.500002 V 41.000001 H 44.900002 V 34.900002 Z" transform="matrix(0.6169 -0.7871 0.7871 0.6169 -12.6018 50.1382)" class="st8" style="fill: rgb(18, 16, 11);"/>
		</g>
		<g>
			<path d="M 60.700002 49.5 A 0.8 0.8 0 0 1 59.900002 50.3 A 0.8 0.8 0 0 1 59.100002 49.5 A 0.8 0.8 0 0 1 59.900002 48.7 A 0.8 0.8 0 0 1 60.700002 49.5 Z" class="st8" style="fill: rgb(18, 16, 11);"/>
			<path d="M 64.999997 52.900002 A 0.8 0.8 0 0 1 64.199997 53.700002 A 0.8 0.8 0 0 1 63.399997 52.900002 A 0.8 0.8 0 0 1 64.199997 52.100002 A 0.8 0.8 0 0 1 64.999997 52.900002 Z" class="st8" style="fill: rgb(18, 16, 11);"/>
			<path d="M 69.3 56.299999 A 0.8 0.8 0 0 1 68.5 57.099999 A 0.8 0.8 0 0 1 67.7 56.299999 A 0.8 0.8 0 0 1 68.5 55.499999 A 0.8 0.8 0 0 1 69.3 56.299999 Z" class="st8" style="fill: rgb(18, 16, 11);"/>
			<path d="M 73.700002 59.700001 A 0.8 0.8 0 0 1 72.900002 60.500001 A 0.8 0.8 0 0 1 72.100002 59.700001 A 0.8 0.8 0 0 1 72.900002 58.900001 A 0.8 0.8 0 0 1 73.700002 59.700001 Z" class="st8" style="fill: rgb(18, 16, 11);"/>
		</g>
	</g><path class="st4" d="M19.6,16.9c0.2,0.1,0.2,0.4,0.1,0.6l0,0c-0.1,0.2-0.4,0.2-0.6,0.1l-3-2.3c-0.2-0.1-0.2-0.4-0.1-0.6l0,0&#10;&#9;&#9;c0.1-0.2,0.4-0.2,0.6-0.1L19.6,16.9z" style="fill: rgb(114, 120, 114);" transform="matrix(4.177751541137695, 0, 0, 4.177751541137695, -2, 1.4210854715202004e-14)"/><path class="st4" d="M9.5,17.4l6.8,5.3l7.7-9.8l-6.8-5.3L9.5,17.4z M22.8,12.9L16,21.6l-5.4-4.3l6.8-8.7L22.8,12.9z" style="fill: rgb(114, 120, 114);" transform="matrix(4.177751541137695, 0, 0, 4.177751541137695, -2, 1.4210854715202004e-14)"/><path class="st9" d="M86.4,63.2c0,0,6.1,4,2.5,8.6c-3.4,4.4-8.9-0.4-8.9-0.4L16,21.3l6.4-8.2L86.4,63.2z" style="fill: rgb(61, 86, 110);" transform="matrix(4.177751541137695, 0, 0, 4.177751541137695, -2, 1.4210854715202004e-14)"/><path d="M 48.700001 43.700001 H 59.1 V 44.900001 H 48.700001 V 43.700001 Z" transform="matrix(2.5772547886708708, -3.2878904648674734, 3.2878904648674734, 2.5772547886708708, -61.41890734136905, 248.01973351168277)" class="st1" style="opacity: 0.15; fill: rgb(18, 16, 11);"/><path d="M 38.599998 26.4 H 51.399999 V 48.199999 H 38.599998 V 26.4 Z" transform="matrix(2.5772547886708708, -3.2878904648674734, 3.2878904648674734, 2.5772547886708708, -52.70328307708223, 207.49847275703365)" class="st4" style="fill: rgb(114, 120, 114);"/><path d="M 54.7 37.299999 A 9.7 9.7 0 0 1 45 46.999999 A 9.7 9.7 0 0 1 35.3 37.299999 A 9.7 9.7 0 0 1 45 27.599999 A 9.7 9.7 0 0 1 54.7 37.299999 Z" class="st4" style="fill: rgb(210, 45, 0);" transform="matrix(4.177751541137695, 0, 0, 4.177751541137695, -2, 2.842170943040401e-14)"/><path d="M 52.6 37.299999 A 7.6 7.6 0 0 1 45 44.899999 A 7.6 7.6 0 0 1 37.4 37.299999 A 7.6 7.6 0 0 1 45 29.699999 A 7.6 7.6 0 0 1 52.6 37.299999 Z" class="st2" style="fill: rgb(242, 242, 243);" transform="matrix(4.177751541137695, 0, 0, 4.177751541137695, -2, 2.842170943040401e-14)"/><path d="M 45.599998 34.299999 H 46.199998 V 37.899999 H 45.599998 V 34.299999 Z" transform="matrix(3.2874723713746334, 2.578090726643154, -2.578090726643154, 3.2874723713746334, 131.9374611344101, -86.14857905598909)" class="st4" style="fill: rgb(114, 120, 114);"/><path d="M 42.5 32.5 H 43.1 V 38.6 H 42.5 V 32.5 Z" transform="matrix(2.5772547886708708, -3.288308309346917, 3.288308309346917, 2.5772547886708708, -50.596860826537466, 197.73255779658945)" class="st4" style="fill: rgb(114, 120, 114);"/><g transform="matrix(4.177751541137695, 0, 0, 4.177751541137695, -2, 1.4210854715202004e-14)">
		<path d="M 58.3 47.099998 A 0.8 0.8 0 0 1 57.5 47.899998 A 0.8 0.8 0 0 1 56.7 47.099998 A 0.8 0.8 0 0 1 57.5 46.299998 A 0.8 0.8 0 0 1 58.3 47.099998 Z" class="st10" style="fill: rgb(194, 191, 172);"/>
		<path d="M 62.599999 50.5 A 0.8 0.8 0 0 1 61.799999 51.3 A 0.8 0.8 0 0 1 60.999999 50.5 A 0.8 0.8 0 0 1 61.799999 49.7 A 0.8 0.8 0 0 1 62.599999 50.5 Z" class="st10" style="fill: rgb(194, 191, 172);"/>
		<path d="M 66.899998 53.900002 A 0.8 0.8 0 0 1 66.099998 54.700002 A 0.8 0.8 0 0 1 65.299998 53.900002 A 0.8 0.8 0 0 1 66.099998 53.100002 A 0.8 0.8 0 0 1 66.899998 53.900002 Z" class="st10" style="fill: rgb(194, 191, 172);"/>
		<path d="M 71.3 57.299999 A 0.8 0.8 0 0 1 70.5 58.099999 A 0.8 0.8 0 0 1 69.7 57.299999 A 0.8 0.8 0 0 1 70.5 56.499999 A 0.8 0.8 0 0 1 71.3 57.299999 Z" class="st10" style="fill: rgb(194, 191, 172);"/>
	</g>
<g transform="matrix(4.177751541137695, 0, 0, 4.177751541137695, -2, 0)">
	<path class="st1" d="M37.7,132.1c0,0,8.9,7.3,13.1,7.3c4.2,0,16.7-4.4,17.2-6c0.5-1.6-2.6-13.8-4.1-15.4c-1.4-1.6,2.3-4.9,2.5-6&#10;&#9;&#9;c0.2-1.1-8.5-14.2-8.5-14.2S47.7,96.5,44,98.3c-3.7,1.9-9,8-9.2,10C34.6,110.4,34,127.6,37.7,132.1z" style="opacity: 0.15; fill: rgb(18, 16, 11);"/>
	
		<path d="M 27.299999 89.900002 H 53.699999 V 109.600002 H 27.299999 V 89.900002 Z" transform="matrix(0.5423 0.8402 -0.8402 0.5423 102.3319 11.6379)" class="st4" style="fill: rgb(114, 120, 114);"/>
	<path d="M 32.900002 93 H 59.300001 V 99.4 H 32.900002 V 93 Z" transform="matrix(0.5423 0.8402 -0.8402 0.5423 101.8556 5.2819)" class="st11" style="fill: rgb(80, 90, 80);"/>
	<path d="M 16.1 95 H 46.800001 V 116.1 H 16.1 V 95 Z" transform="matrix(0.5423 0.8402 -0.8402 0.5423 103.0984 21.941)" class="st4" style="fill: rgb(114, 120, 114);"/>
	<path class="st4" d="M53,108.8c-0.6,0.4-1.3,0.2-1.7-0.4L37.1,86.2c-0.4-0.6-0.2-1.3,0.4-1.7l7.4-4.8c0.6-0.4,1.3-0.2,1.7,0.4&#10;&#9;&#9;l14.3,22.2c0.4,0.6,0.2,1.3-0.4,1.7L53,108.8z" style="fill: rgb(114, 120, 114);"/>
	<path class="st2" d="M39,131.8c-0.7,0.4-1.6,0.2-2-0.4L10.2,89.9c-0.4-0.7-0.2-1.6,0.4-2l11.9-7.7c0.7-0.4,1.6-0.2,2,0.4l26.8,41.5&#10;&#9;&#9;c0.4,0.7,0.2,1.6-0.4,2L39,131.8z" style="fill: rgb(242, 242, 243);"/>
	<path d="M 40.3 126.300003 A 4.3 4.3 0 0 1 36 130.600003 A 4.3 4.3 0 0 1 31.7 126.300003 A 4.3 4.3 0 0 1 36 122.000003 A 4.3 4.3 0 0 1 40.3 126.300003 Z" class="st3" style="fill: rgb(216, 218, 216);"/>
	<path d="M 48.099998 121.199997 A 2 2 0 0 1 46.099998 123.199997 A 2 2 0 0 1 44.099998 121.199997 A 2 2 0 0 1 46.099998 119.199997 A 2 2 0 0 1 48.099998 121.199997 Z" class="st12" style="fill: rgb(184, 189, 186);"/>
	<path d="M 9.6 93.699997 H 24.5 V 96.299997 H 9.6 V 93.699997 Z" transform="matrix(0.5423 0.8402 -0.8402 0.5423 87.5901 29.1038)" class="st4" style="fill: rgb(114, 120, 114);"/>
	<path d="M 26 99.400002 H 35 V 113.100001 H 26 V 99.400002 Z" transform="matrix(0.5424 0.8401 -0.8401 0.5424 103.1709 22.9859)" class="st4" style="fill: rgb(114, 120, 114);"/>
	<g>
		<path d="M 35.700001 87.300003 H 36.000001 V 91.100003 H 35.700001 V 87.300003 Z" transform="matrix(0.5426 0.84 -0.84 0.5426 91.305 10.6753)" class="st11" style="fill: rgb(80, 90, 80);"/>
		
			<path d="M 36.700001 88.699997 H 37.000001 V 92.499997 H 36.700001 V 88.699997 Z" transform="matrix(0.5424 0.8401 -0.8401 0.5424 92.9956 10.5632)" class="st11" style="fill: rgb(80, 90, 80);"/>
		
			<path d="M 37.599998 90.199997 H 37.899998 V 93.999997 H 37.599998 V 90.199997 Z" transform="matrix(0.5424 0.8401 -0.8401 0.5424 94.6712 10.4769)" class="st11" style="fill: rgb(80, 90, 80);"/>
		
			<path d="M 38.5 91.699997 H 38.8 V 95.499997 H 38.5 V 91.699997 Z" transform="matrix(0.5416 0.8407 -0.8407 0.5416 96.4267 10.4461)" class="st11" style="fill: rgb(80, 90, 80);"/>
		
			<path d="M 39.400002 93.199997 H 39.700002 V 96.999997 H 39.400002 V 93.199997 Z" transform="matrix(0.5409 0.8411 -0.8411 0.5409 98.162 10.3651)" class="st11" style="fill: rgb(80, 90, 80);"/>
		
			<path d="M 40.400002 94.699997 H 40.700002 V 98.499997 H 40.400002 V 94.699997 Z" transform="matrix(0.5404 0.8414 -0.8414 0.5404 99.895 10.2809)" class="st11" style="fill: rgb(80, 90, 80);"/>
		
			<path d="M 41.400002 96.099998 H 41.700002 V 99.899998 H 41.400002 V 96.099998 Z" transform="matrix(0.5418 0.8405 -0.8405 0.5418 101.4221 10.0197)" class="st11" style="fill: rgb(80, 90, 80);"/>
		
			<path d="M 42.299999 97.599998 H 42.599999 V 101.399998 H 42.299999 V 97.599998 Z" transform="matrix(0.5432 0.8396 -0.8396 0.5432 102.9425 9.7927)" class="st11" style="fill: rgb(80, 90, 80);"/>
		
			<path d="M 43.299999 99.099998 H 43.599999 V 102.899998 H 43.299999 V 99.099998 Z" transform="matrix(0.5401 0.8416 -0.8416 0.5401 104.9482 9.8925)" class="st11" style="fill: rgb(80, 90, 80);"/>
		
			<path d="M 44.200001 100.5 H 44.500001 V 104.3 H 44.200001 V 100.5 Z" transform="matrix(0.5391 0.8422 -0.8422 0.5391 106.7351 9.8438)" class="st11" style="fill: rgb(80, 90, 80);"/>
		
			<path d="M 45.200001 102 H 45.500001 V 105.8 H 45.200001 V 102 Z" transform="matrix(0.5436 0.8393 -0.8393 0.5436 107.9084 9.3855)" class="st11" style="fill: rgb(80, 90, 80);"/>
		
			<path d="M 46.099998 103.5 H 46.399998 V 107.3 H 46.099998 V 103.5 Z" transform="matrix(0.5435 0.8394 -0.8394 0.5435 109.5935 9.2699)" class="st11" style="fill: rgb(80, 90, 80);"/>
		
			<path d="M 47.099998 104.900002 H 47.399998 V 108.700001 H 47.099998 V 104.900002 Z" transform="matrix(0.5404 0.8414 -0.8414 0.5404 111.6252 9.382)" class="st11" style="fill: rgb(80, 90, 80);"/>
		
			<path d="M 48 106.400002 H 48.3 V 110.200001 H 48 V 106.400002 Z" transform="matrix(0.5432 0.8396 -0.8396 0.5432 112.9715 9.0427)" class="st11" style="fill: rgb(80, 90, 80);"/>
	</g>
</g>
<g transform="matrix(4.177751541137695, 0, 0, 4.177751541137695, -2, 0)">
	<g class="st7" style="opacity: 0.15;">
		<path d="M 83.5 102.5 H 90.7 V 109.9 H 83.5 V 102.5 Z" class="st8" style="fill: rgb(18, 16, 11);"/>
		<path d="M 82.900002 133.899994 H 91.300001 V 134.999994 H 82.900002 V 133.899994 Z" class="st8" style="fill: rgb(18, 16, 11);"/>
		<path d="M 81.900002 108.099998 H 92.500002 V 134.199999 H 81.900002 V 108.099998 Z" class="st8" style="fill: rgb(18, 16, 11);"/>
	</g>
	<path d="M 81.099998 100.099998 H 88.299998 V 107.499999 H 81.099998 V 100.099998 Z" class="st2" style="fill: rgb(242, 242, 243);"/>
	<path d="M 80.5 131.5 H 88.9 V 132.6 H 80.5 V 131.5 Z" class="st4" style="fill: rgb(114, 120, 114);"/>
	<path d="M 79.5 105.699997 H 90.1 V 131.799997 H 79.5 V 105.699997 Z" class="st13" style="fill: rgb(233, 78, 80);"/>
	<path d="M 84.199997 105.699997 H 85.299997 V 131.799997 H 84.199997 V 105.699997 Z" class="st2" style="fill: rgb(242, 242, 243);"/>
	<g>
		<path d="M 82.300003 102.199997 H 83.700003 V 103.599997 H 82.300003 V 102.199997 Z" class="st3" style="fill: rgb(216, 218, 216);"/>
		<path d="M 85.699997 102.199997 H 87.099997 V 103.599997 H 85.699997 V 102.199997 Z" class="st3" style="fill: rgb(216, 218, 216);"/>
	</g>
	<g class="st7" style="opacity: 0.15;">
		<g>
			<path d="M 71.400002 88.400002 H 82.000002 V 94.800002 H 71.400002 V 88.400002 Z" transform="matrix(0.8216 -0.57 0.57 0.8216 -38.4934 60.0561)" class="st8" style="fill: rgb(18, 16, 11);"/>
			<path class="st8" d="M79.2,85.9c1.7,2.4-0.5,3.4-2.9,5.1c-2.4,1.7-4.1,3.3-5.8,0.9c-1.7-2.4-1.1-5.7,1.3-7.3&#10;&#9;&#9;&#9;&#9;C74.3,82.9,77.6,83.5,79.2,85.9z" style="fill: rgb(18, 16, 11);"/>
		</g>
		<path class="st8" d="M71.4,84.9l6.6,9.6l0.9-0.6l-6.6-9.6c-0.2,0.1-0.3,0.2-0.5,0.3C71.7,84.7,71.6,84.8,71.4,84.9z" style="fill: rgb(18, 16, 11);"/>
	</g>
	<g>
		<path d="M 69 86 H 79.6 V 92.4 H 69 V 86 Z" transform="matrix(0.8216 -0.57 0.57 0.8216 -37.5549 58.2653)" class="st13" style="fill: rgb(233, 78, 80);"/>
		<path class="st13" d="M76.8,83.5c1.7,2.4-0.5,3.4-2.9,5.1c-2.4,1.7-4.1,3.3-5.8,0.9c-1.7-2.4-1.1-5.7,1.3-7.3&#10;&#9;&#9;&#9;C71.9,80.5,75.2,81.1,76.8,83.5z" style="fill: rgb(233, 78, 80);"/>
	</g>
	<path class="st2" d="M69,82.5l6.6,9.6l0.9-0.6L70,81.9c-0.2,0.1-0.3,0.2-0.5,0.3C69.3,82.3,69.2,82.4,69,82.5z" style="fill: rgb(242, 242, 243);"/>
</g>
<path d="M 289.399994 115.400002 H 326.599995 V 152.600002 H 289.399994 V 115.400002 Z" transform="matrix(3.388574300515757, 2.443566717441286, -2.443566717441286, 3.388574300515757, 568.6219833935029, -646.8433824292151)" class="st1" style="opacity: 0.15; fill: rgb(18, 16, 11);"/><path d="M 287.899994 114 H 325.099995 V 151.200001 H 287.899994 V 114 Z" transform="matrix(3.388574300515757, 2.443566717441286, -2.443566717441286, 3.388574300515757, 563.9700147241531, -644.4654120657651)" class="st14" style="fill: rgb(255, 255, 255);"/><path d="M 292.5 117.699997 H 323.9 V 142.799997 H 292.5 V 117.699997 Z" transform="matrix(3.388574300515757, 2.443566717441286, -2.443566717441286, 3.388574300515757, 559.4835343818415, -650.5344223459542)" class="st15" style="fill: rgb(169, 201, 69);"/><path d="M 254.5 102.099998 H 291.700001 V 139.299999 H 254.5 V 102.099998 Z" transform="matrix(3.6183506651599373, -2.0884580505961026, 2.0884580505961026, 3.6183506651599373, -101.33607354858395, 637.8261172810744)" class="st1" style="opacity: 0.15; fill: rgb(18, 16, 11);"/><path d="M 253 100.699997 H 290.200001 V 137.899998 H 253 V 100.699997 Z" transform="matrix(3.6183506651599373, -2.0884580505961026, 2.0884580505961026, 3.6183506651599373, -99.13815779981815, 633.9850796626706)" class="st14" style="fill: rgb(255, 255, 255);"/><path d="M 254.399994 104.199997 H 285.799994 V 129.299997 H 254.399994 V 104.199997 Z" transform="matrix(3.6183506651599373, -2.0884580505961026, 2.0884580505961026, 3.6183506651599373, -94.64373293410245, 629.4743752971408)" class="st9" style="fill: rgb(248, 177, 35);"/>
<g transform="matrix(4.177751541137695, 0, 0, 4.177751541137695, -2, 0)">
	<g class="st7" style="opacity: 0.15;">
		<path class="st8" d="M243.3,176.3c-0.8,0.9-2.2,1.1-3.1,0.3l-3.2-2.7c-0.9-0.8-1.1-2.2-0.3-3.1l6.2-7.5c0.8-0.9,2.2-1.1,3.1-0.3&#10;&#9;&#9;&#9;l3.2,2.7c0.9,0.8,1.1,2.2,0.3,3.1L243.3,176.3z" style="fill: rgb(18, 16, 11);"/>
		<g>
			<path d="M 215.8000030517578 195.89999389648438 L 212.60000610351562 206.5 L 222.39999389648438 201.39999389648438 Z" class="st8" style="fill: rgb(18, 16, 11);"/>
			<path d="M 213.3000030517578 204 L 212.60000610351562 206.5 L 215.60000610351562 205 Z" class="st8" style="fill: rgb(18, 16, 11);"/>
		</g>
		
			<path d="M 226.5 166.199997 H 235.1 V 202.899998 H 226.5 V 166.199997 Z" transform="matrix(0.7688 0.6395 -0.6395 0.7688 171.4008 -104.9411)" class="st8" style="fill: rgb(18, 16, 11);"/>
		
			<path d="M 229.100006 166.199997 H 232.500006 V 202.899998 H 229.100006 V 166.199997 Z" transform="matrix(0.7687 0.6397 -0.6397 0.7687 171.46 -104.953)" class="st8" style="fill: rgb(18, 16, 11);"/>
		
			<path d="M 238.5 168 H 248 V 171.4 H 238.5 V 168 Z" transform="matrix(0.7687 0.6396 -0.6396 0.7687 164.7693 -116.3091)" class="st8" style="fill: rgb(18, 16, 11);"/>
	</g>
	<path class="st16" d="M240.9,173.9c-0.8,0.9-2.2,1.1-3.1,0.3l-3.2-2.7c-0.9-0.8-1.1-2.2-0.3-3.1l6.2-7.5c0.8-0.9,2.2-1.1,3.1-0.3&#10;&#9;&#9;l3.2,2.7c0.9,0.8,1.1,2.2,0.3,3.1L240.9,173.9z" style="fill: rgb(255, 239, 190);"/>
	<g>
		<path d="M 213.39999389648438 193.5 L 210.1999969482422 204.10000610351562 L 220 199 Z" class="st17" style="fill: rgb(253, 209, 119);"/>
		<path d="M 210.89999389648438 201.60000610351562 L 210.1999969482422 204.10000610351562 L 213.1999969482422 202.60000610351562 Z" class="st18" style="fill: rgb(84, 78, 74);"/>
	</g>
	
		<path d="M 224.100006 163.800003 H 232.700006 V 200.500004 H 224.100006 V 163.800003 Z" transform="matrix(0.7688 0.6394 -0.6394 0.7688 169.2858 -103.9563)" class="st13" style="fill: rgb(233, 78, 80);"/>
	
		<path d="M 226.699997 163.800003 H 230.099997 V 200.500004 H 226.699997 V 163.800003 Z" transform="matrix(0.7687 0.6396 -0.6396 0.7687 169.3581 -103.9708)" class="st19" style="fill: rgb(200, 49, 47);"/>
	
		<path d="M 236.100006 165.600006 H 245.600006 V 169.000006 H 236.100006 V 165.600006 Z" transform="matrix(0.7688 0.6395 -0.6395 0.7688 162.6704 -115.3269)" class="st20" style="fill: rgb(107, 95, 87);"/>
</g>
<g transform="matrix(4.177751541137695, 0, 0, 4.177751541137695, -2, 0)">
	<g class="st7" style="opacity: 0.15;">
		<path d="M 111.900002 157.100006 L 116.199997 156.300003 L 120 177.199997 L 118.800003 177.399994 L 115.800003 160.300003 L 113.099998 160.800003" class="st8" style="fill: rgb(18, 16, 11);"/>
		
			<path d="M 118.199997 217.899994 H 123.599997 V 219.699994 H 118.199997 V 217.899994 Z" transform="matrix(0.9843 -0.1765 0.1765 0.9843 -36.717 24.779)" class="st8" style="fill: rgb(18, 16, 11);"/>
		
			<path d="M 112.099998 154.899994 H 118.399999 V 218.899994 H 112.099998 V 154.899994 Z" transform="matrix(0.9843 -0.1766 0.1766 0.9843 -31.1889 23.279)" class="st8" style="fill: rgb(18, 16, 11);"/>
		
			<path d="M 107.800003 154.199997 H 114.900003 V 176.399998 H 107.800003 V 154.199997 Z" transform="matrix(0.9843 -0.1765 0.1765 0.9843 -27.4182 22.2413)" class="st8" style="fill: rgb(18, 16, 11);"/>
		
			<path d="M 109.599998 174.5 H 116.699998 V 176.3 H 109.599998 V 174.5 Z" transform="matrix(0.9843 -0.1765 0.1765 0.9843 -29.1663 22.7179)" class="st8" style="fill: rgb(18, 16, 11);"/>
	</g>
	<path d="M 108.900002 154.100006 L 113.300003 153.399994 L 117 174.199997 L 115.900002 174.399994 L 112.900002 157.399994 L 110.199997 157.800003" class="st21" style="fill: rgb(201, 132, 19);"/>
	
		<path d="M 115.300003 215 H 120.700003 V 216.8 H 115.300003 V 215 Z" transform="matrix(0.9843 -0.1765 0.1765 0.9843 -36.2414 24.2119)" class="st22" style="fill: rgb(161, 99, 39);"/>
	
		<path d="M 109.099998 152 H 115.399999 V 216 H 109.099998 V 152 Z" transform="matrix(0.9843 -0.1767 0.1767 0.9843 -30.7388 22.7342)" class="st21" style="fill: rgb(201, 132, 19);"/>
	
		<path d="M 104.800003 151.199997 H 111.900003 V 173.399998 H 104.800003 V 151.199997 Z" transform="matrix(0.9843 -0.1765 0.1765 0.9843 -26.9484 21.6793)" class="st22" style="fill: rgb(161, 99, 39);"/>
	
		<path d="M 106.599998 171.5 H 113.699998 V 173.3 H 106.599998 V 171.5 Z" transform="matrix(0.9843 -0.1765 0.1765 0.9843 -28.6968 22.156)" class="st23" style="fill: rgb(255, 232, 0);"/>
</g>
<g transform="matrix(4.177751541137695, 0, 0, 4.177751541137695, -2, 0)">
	<g class="st7" style="opacity: 0.15;">
		<path d="M 280.100006 194.399994 L 285.600006 193.199997 L 286.100006 195.5 L 280.299988 196.800003" class="st8" style="fill: rgb(18, 16, 11);"/>
		<path class="st8" d="M261.6,211.3c0,0-1.9,2.1-1.4,3c0.5,0.9,4.5,0.7,4.4-1.8C263.8,211.8,261.6,211.3,261.6,211.3z" style="fill: rgb(18, 16, 11);"/>
		<path class="st8" d="M309.3,200.3c0,0,2.6,1.1,2.6,2.1c0,1-3.8,2.6-4.7,0.3C307.6,201.7,309.3,200.3,309.3,200.3z" style="fill: rgb(18, 16, 11);"/>
		<g>
			<path class="st8" d="M311.3,193.8c0.7,5.5-3.5,10.8-9.5,12.4c-6.9,1.9-13.5-3-15.5-8.2c-2-5.2-3.6-10.1,9.3-13.2&#10;&#9;&#9;&#9;&#9;C309.5,181.4,310.6,188.4,311.3,193.8z" style="fill: rgb(18, 16, 11);"/>
			<path class="st8" d="M256.9,206.3c1.7,5.2,7.8,8.2,13.9,7c7-1.3,10.9-8.6,10.4-14.1c-0.5-5.6-1.1-10.6-14.2-7.8&#10;&#9;&#9;&#9;&#9;C253.1,194.4,255.2,201.1,256.9,206.3z" style="fill: rgb(18, 16, 11);"/>
			<path class="st8" d="M298,184.3c0,0,6.8-1.5,13-0.8c0.5,1.5,0.6,2.9,0.6,2.9s-1.2,0.3-1.2,0.6c0,0.2,1.2,6.6,1,8.1&#10;&#9;&#9;&#9;&#9;C309.5,187.6,306.2,184.2,298,184.3z" style="fill: rgb(18, 16, 11);"/>
			<path class="st8" d="M264.7,192c0,0-6.8,1.6-12.1,5c0.2,1.6,0.7,2.8,0.7,2.8s1.2-0.2,1.3,0c0.1,0.2,1.8,6.4,2.6,7.7&#10;&#9;&#9;&#9;&#9;C255.8,200,257.3,195.4,264.7,192z" style="fill: rgb(18, 16, 11);"/>
			<path class="st8" d="M266,191.6l30-6.9c0,0-10.5,4.8-9.7,8.3l0.2,2.5l-6.7,1.6c0,0-0.3-5.2-5.2-5.3&#10;&#9;&#9;&#9;&#9;C269.7,191.6,266,191.6,266,191.6z" style="fill: rgb(18, 16, 11);"/>
			<path class="st8" d="M281.1,198.9c0,0,0-2.2,2.1-2.7c2.1-0.5,2.9,1,3,1.5c0.3-0.7,0.7-3.3-0.2-3.2c-0.9,0.1-3.6,0.2-4.3,0.7&#10;&#9;&#9;&#9;&#9;c-0.6,0.5-2,0.6-2,1.3C279.9,197.3,281.1,198.9,281.1,198.9z" style="fill: rgb(18, 16, 11);"/>
		</g>
		<path class="st8" d="M309.3,194.1c0.6,4.6-2.9,9-7.9,10.4c-5.8,1.6-11.4-2.5-13-6.9c-1.7-4.4-3-8.4,7.8-11.1&#10;&#9;&#9;&#9;C307.8,183.7,308.7,189.5,309.3,194.1z" style="fill: rgb(18, 16, 11);"/>
		<path class="st8" d="M258.8,205.7c1.4,4.4,6.6,6.9,11.7,5.9c5.9-1.1,9.1-7.3,8.7-11.9c-0.4-4.7-1-8.9-11.9-6.5&#10;&#9;&#9;&#9;C255.7,195.7,257.4,201.3,258.8,205.7z" style="fill: rgb(18, 16, 11);"/>
	</g>
	<path d="M 277.700012 192 L 283.200012 190.800003 L 283.700012 193.100006 L 277.899994 194.399994" class="st24" style="fill: rgb(166, 45, 23);"/>
	<path class="st25" d="M259.2,208.9c0,0-1.9,2.1-1.4,3c0.5,0.9,4.5,0.7,4.4-1.8C261.4,209.4,259.2,208.9,259.2,208.9z" style="fill: rgb(83, 89, 81);"/>
	<path class="st25" d="M306.9,197.9c0,0,2.6,1.1,2.6,2.1c0,1-3.8,2.6-4.7,0.3C305.2,199.3,306.9,197.9,306.9,197.9z" style="fill: rgb(83, 89, 81);"/>
	<g>
		<path class="st4" d="M308.9,191.4c0.7,5.5-3.5,10.8-9.5,12.4c-6.9,1.9-13.5-3-15.5-8.2c-2-5.2-3.6-10.1,9.3-13.2&#10;&#9;&#9;&#9;C307.1,179,308.2,186,308.9,191.4z" style="fill: rgb(114, 120, 114);"/>
		<path class="st4" d="M254.5,203.9c1.7,5.2,7.8,8.2,13.9,7c7-1.3,10.9-8.6,10.4-14.1c-0.5-5.6-1.1-10.6-14.2-7.8&#10;&#9;&#9;&#9;C250.7,192,252.8,198.7,254.5,203.9z" style="fill: rgb(114, 120, 114);"/>
		<path class="st4" d="M295.6,181.9c0,0,6.8-1.5,13-0.8c0.5,1.5,0.6,2.9,0.6,2.9s-1.2,0.3-1.2,0.6c0,0.2,1.2,6.6,1,8.1&#10;&#9;&#9;&#9;C307.1,185.2,303.8,181.8,295.6,181.9z" style="fill: rgb(114, 120, 114);"/>
		<path class="st4" d="M262.3,189.6c0,0-6.8,1.6-12.1,5c0.2,1.6,0.7,2.8,0.7,2.8s1.2-0.3,1.3,0c0.1,0.2,1.8,6.4,2.6,7.7&#10;&#9;&#9;&#9;C253.4,197.6,254.9,193,262.3,189.6z" style="fill: rgb(114, 120, 114);"/>
		<path class="st4" d="M263.6,189.2l30-6.9c0,0-10.5,4.8-9.7,8.3l0.2,2.5l-6.8,1.6c0,0-0.3-5.2-5.2-5.3&#10;&#9;&#9;&#9;C267.3,189.2,263.6,189.2,263.6,189.2z" style="fill: rgb(114, 120, 114);"/>
		<path class="st4" d="M278.7,196.5c0,0,0-2.2,2.1-2.7c2.1-0.5,2.9,1,3,1.5c0.3-0.7,0.7-3.3-0.2-3.2c-0.9,0.1-3.6,0.2-4.3,0.7&#10;&#9;&#9;&#9;c-0.6,0.5-2,0.6-2,1.3C277.5,194.9,278.7,196.5,278.7,196.5z" style="fill: rgb(114, 120, 114);"/>
	</g>
	<path class="st2" d="M306.9,191.7c0.6,4.6-2.9,9-7.9,10.4c-5.8,1.6-11.4-2.5-13-6.9c-1.7-4.4-3-8.4,7.8-11.1&#10;&#9;&#9;C305.4,181.3,306.3,187.1,306.9,191.7z" style="fill: rgb(242, 242, 243);"/>
	<path class="st2" d="M256.4,203.3c1.4,4.4,6.6,6.9,11.7,5.9c5.9-1.1,9.1-7.3,8.7-11.9c-0.4-4.7-1-8.9-11.9-6.5&#10;&#9;&#9;C253.3,193.3,255,198.9,256.4,203.3z" style="fill: rgb(242, 242, 243);"/>
</g>
<g transform="matrix(4.177751541137695, 0, 0, 4.177751541137695, -2, 0)">
	<g class="st7" style="opacity: 0.15;">
		<path class="st8" d="M37,198.6c-0.2,0.6-1.1,0.9-2,0.6l-11.9-3.5c-0.9-0.3-1.5-1-1.4-1.7l2.7-9c0.2-0.6,1.1-0.9,2-0.6l11.9,3.5&#10;&#9;&#9;&#9;c0.9,0.3,1.5,1,1.4,1.7L37,198.6z" style="fill: rgb(18, 16, 11);"/>
		
			<path d="M 18.6 190.399994 H 36.200001 V 215.499994 H 18.6 V 190.399994 Z" transform="matrix(0.9589 0.2836 -0.2836 0.9589 58.6885 0.5551)" class="st8" style="fill: rgb(18, 16, 11);"/>
	</g>
	<path class="st2" d="M34.6,196.2c-0.2,0.6-1.1,0.9-2,0.6l-11.9-3.5c-0.9-0.3-1.5-1-1.4-1.7l2.7-9c0.2-0.6,1.1-0.9,2-0.6l11.9,3.5&#10;&#9;&#9;c0.9,0.3,1.5,1,1.4,1.7L34.6,196.2z" style="fill: rgb(242, 242, 243);"/>
	<path d="M 16.200001 188 H 33.800001 V 213.1 H 16.200001 V 188 Z" transform="matrix(0.959 0.2835 -0.2835 0.959 57.8889 1.1338)" class="st26" style="fill: rgb(87, 122, 157);"/>
</g>
</svg>