<?xml version="1.0" encoding="utf-8"?>
<svg id="master-artboard" viewBox="0 0 1400 980" version="1.1" xmlns="http://www.w3.org/2000/svg" x="0px" y="0px" style="enable-background:new 0 0 336 235.2;" width="1400px" height="980px"><defs><linearGradient id="linear-gradient" x1="0.5" x2="1.275" y2="0.725" gradientUnits="objectBoundingBox">
      <stop offset="0" stop-color="#fe8464"/>
      <stop offset="1" stop-color="#fe6e9a"/>
    </linearGradient><style id="ee-google-fonts">@import url(https://fonts.googleapis.com/css?family=Montserrat:700,400);</style></defs><rect id="ee-background" x="0" y="0" width="1400" height="980" style="fill: white; fill-opacity: 0; pointer-events: none;"/><path d="M 116.92303466796875 218.4614715576172" style="fill-opacity: 1; stroke: rgb(0, 0, 0); stroke-opacity: 1; stroke-width: 10; paint-order: fill;" transform="matrix(1, 0, 0, 1, -37.0615348815918, -9.668246269226074)"/><path style="fill:#c1c8cf; stroke:none;" d="M327.667 18.3333C327.222 18.7777 328.278 18.7222 328.333 18.6667C328.778 18.2222 327.722 18.2779 327.667 18.3333z" transform="matrix(2.848837375640869, 0, 0, 2.848837375640869, 170.11624145507824, 0.00001321362015005434)"/><path style="fill:#a3b0ba; stroke:none;" d="M329 19C330.248 19.6848 330.549 19.7488 332 20C330.752 19.3152 330.452 19.2512 329 19z" transform="matrix(2.848837375640869, 0, 0, 2.848837375640869, 170.11624145507824, 0.00001321362015005434)"/><path style="fill:#66798c; stroke:none;" d="M330 20C331.248 20.6848 331.548 20.7488 333 21C331.752 20.3152 331.452 20.2512 330 20z" transform="matrix(2.848837375640869, 0, 0, 2.848837375640869, 170.11624145507824, 0.00001321362015005434)"/><path style="fill:#c9d0d6; stroke:none;" d="M333.667 20.3333C333.222 20.7777 334.278 20.7222 334.333 20.6667C334.778 20.2222 333.722 20.2778 333.667 20.3333z" transform="matrix(2.848837375640869, 0, 0, 2.848837375640869, 170.11624145507824, 0.00001321362015005434)"/><path style="fill:#98a5b2; stroke:none;" d="M334.667 21.3333C334.222 21.7777 335.278 21.7223 335.333 21.6667C335.778 21.2222 334.722 21.2778 334.667 21.3333z" transform="matrix(2.848837375640869, 0, 0, 2.848837375640869, 170.11624145507824, 0.00001321362015005434)"/><path style="fill:#c9d0d6; stroke:none;" d="M336 21L337 22L336 21z" transform="matrix(2.848837375640869, 0, 0, 2.848837375640869, 170.11624145507824, 0.00001321362015005434)"/><path style="fill:#a3afba; stroke:none;" d="M337 22L338 23L337 22z" transform="matrix(2.848837375640869, 0, 0, 2.848837375640869, 170.11624145507824, 0.00001321362015005434)"/><path style="fill:#8696a5; stroke:none;" d="M338 23L339 24L338 23z" transform="matrix(2.848837375640869, 0, 0, 2.848837375640869, 170.11624145507824, 0.00001321362015005434)"/><path style="fill:#c2cad1; stroke:none;" d="M339 23L340 24L339 23z" transform="matrix(2.848837375640869, 0, 0, 2.848837375640869, 170.11624145507824, 0.00001321362015005434)"/><path style="fill:#b1bcc5; stroke:none;" d="M340 24L341 25L340 24z" transform="matrix(2.848837375640869, 0, 0, 2.848837375640869, 170.11624145507824, 0.00001321362015005434)"/><path style="fill:#a7b2bd; stroke:none;" d="M341 25L342 26L341 25z" transform="matrix(2.848837375640869, 0, 0, 2.848837375640869, 170.11624145507824, 0.00001321362015005434)"/><path style="fill:#a6b1bc; stroke:none;" d="M342 26L343 27L342 26z" transform="matrix(2.848837375640869, 0, 0, 2.848837375640869, 170.11624145507824, 0.00001321362015005434)"/><path style="fill:#aeb8c2; stroke:none;" d="M343 27L344 28L343 27z" transform="matrix(2.848837375640869, 0, 0, 2.848837375640869, 170.11624145507824, 0.00001321362015005434)"/><path style="fill:#bec6cd; stroke:none;" d="M344 28L345 29L344 28z" transform="matrix(2.848837375640869, 0, 0, 2.848837375640869, 170.11624145507824, 0.00001321362015005434)"/><path style="fill:#98a5b2; stroke:none;" d="M345 30L346 31L345 30z" transform="matrix(2.848837375640869, 0, 0, 2.848837375640869, 170.11624145507824, 0.00001321362015005434)"/><path style="fill:#bfc6cf; stroke:none;" d="M346 31L347 32L346 31z" transform="matrix(2.848837375640869, 0, 0, 2.848837375640869, 170.11624145507824, 0.00001321362015005434)"/><path style="fill:#8695a4; stroke:none;" d="M346 32L347 33L346 32z" transform="matrix(2.848837375640869, 0, 0, 2.848837375640869, 170.11624145507824, 0.00001321362015005434)"/><path style="fill:#bdc4cd; stroke:none;" d="M347 33L348 34L347 33z" transform="matrix(2.848837375640869, 0, 0, 2.848837375640869, 170.11624145507824, 0.00001321362015005434)"/><path style="fill:#5f7386; stroke:none;" d="M347.333 34.6667C347.278 34.7223 347.222 35.7777 347.667 35.3333C347.722 35.2778 347.778 34.2221 347.333 34.6667z" transform="matrix(2.848837375640869, 0, 0, 2.848837375640869, 170.11624145507824, 0.00001321362015005434)"/><path style="fill:#acb6c0; stroke:none;" d="M348.333 35.6667C348.278 35.7222 348.222 36.7778 348.667 36.3333C348.722 36.2779 348.778 35.2221 348.333 35.6667z" transform="matrix(2.848837375640869, 0, 0, 2.848837375640869, 170.11624145507824, 0.00001321362015005434)"/><path style="fill:#677b8d; stroke:none;" d="M348.333 37.6667C348.278 37.7222 348.222 38.7777 348.667 38.3333C348.722 38.2779 348.778 37.2221 348.333 37.6667z" transform="matrix(2.848837375640869, 0, 0, 2.848837375640869, 170.11624145507824, 0.00001321362015005434)"/><path style="fill:#b4bcc6; stroke:none;" d="M45.3333 84.6667C45.2778 84.7222 45.2222 85.7778 45.6667 85.3333C45.7222 85.2778 45.7778 84.2222 45.3333 84.6667z" transform="matrix(2.848837375640869, 0, 0, 2.848837375640869, 170.11624145507824, 0.00001321362015005434)"/><path style="fill:#80909f; stroke:none;" d="M46 87L47 88L46 87z" transform="matrix(2.848837375640869, 0, 0, 2.848837375640869, 170.11624145507824, 0.00001321362015005434)"/><path style="fill:#bfc8cf; stroke:none;" d="M46 88L47 89L46 88z" transform="matrix(2.848837375640869, 0, 0, 2.848837375640869, 170.11624145507824, 0.00001321362015005434)"/><path style="fill:#738595; stroke:none;" d="M47 89L48 90L47 89z" transform="matrix(2.848837375640869, 0, 0, 2.848837375640869, 170.11624145507824, 0.00001321362015005434)"/><path style="fill:#b9c1ca; stroke:none;" d="M47 90L48 91L47 90z" transform="matrix(2.848837375640869, 0, 0, 2.848837375640869, 170.11624145507824, 0.00001321362015005434)"/><path style="fill:#8393a2; stroke:none;" d="M48 91L49 92L48 91z" transform="matrix(2.848837375640869, 0, 0, 2.848837375640869, 170.11624145507824, 0.00001321362015005434)"/><path style="fill:#cdd3d9; stroke:none;" d="M48 92L49 93L48 92z" transform="matrix(2.8488373756408687, 0, 0, 2.8488373756408687, 126.817853671482, 5.195819747652578)"/><path style="fill:#abb6bf; stroke:none;" d="M49 93L50 94L49 93z" transform="matrix(2.8488373756408687, 0, 0, 2.8488373756408687, 126.817853671482, 5.195819747652578)"/><path style="fill:#95a2af; stroke:none;" d="M50 94L51 95L50 94z" transform="matrix(2.8488373756408687, 0, 0, 2.8488373756408687, 126.817853671482, 5.195819747652578)"/><path style="fill:#8a99a8; stroke:none;" d="M51 95L52 96L51 95z" transform="matrix(2.8488373756408687, 0, 0, 2.8488373756408687, 126.817853671482, 5.195819747652578)"/><path style="fill:#8999a7; stroke:none;" d="M52 96L53 97L52 96z" transform="matrix(2.8488373756408687, 0, 0, 2.8488373756408687, 126.817853671482, 5.195819747652578)"/><path style="fill:#909eab; stroke:none;" d="M53 97L54 98L53 97z" transform="matrix(2.8488373756408687, 0, 0, 2.8488373756408687, 126.817853671482, 5.195819747652578)"/><path style="fill:#a0abb7; stroke:none;" d="M54 98L55 99L54 98z" transform="matrix(2.8488373756408687, 0, 0, 2.8488373756408687, 126.817853671482, 5.195819747652578)"/><path style="fill:#b5bec6; stroke:none;" d="M55 99L56 100L55 99z" transform="matrix(2.8488373756408687, 0, 0, 2.8488373756408687, 126.817853671482, 5.195819747652578)"/><path style="fill:#6f8193; stroke:none;" d="M56 99C57.2228 100.195 57.42 100.316 59 101C57.7772 99.8048 57.58 99.6836 56 99z" transform="matrix(2.8488373756408687, 0, 0, 2.8488373756408687, 126.817853671482, 5.195819747652578)"/><path style="fill:#9ba8b4; stroke:none;" d="M58.6667 101.333C58.2223 101.778 59.2777 101.722 59.3333 101.667C59.7778 101.222 58.7222 101.278 58.6667 101.333z" transform="matrix(2.8488373756408687, 0, 0, 2.8488373756408687, 126.817853671482, 5.195819747652578)"/><path style="fill:#5e7386; stroke:none;" d="M60.6667 101.333C60.2223 101.778 61.2777 101.722 61.3333 101.667C61.7778 101.222 60.7222 101.278 60.6667 101.333z" transform="matrix(2.8488373756408687, 0, 0, 2.8488373756408687, 126.817853671482, 5.195819747652578)"/><path style="fill:#acb6c0; stroke:none;" d="M60.6667 102.333C60.2222 102.778 61.2778 102.722 61.3333 102.667C61.7778 102.222 60.7222 102.278 60.6667 102.333z" transform="matrix(2.8488373756408687, 0, 0, 2.8488373756408687, 126.817853671482, 5.195819747652578)"/><path style="fill:#5a6f84; stroke:none;" d="M62 102C63.5061 102.683 64.3148 102.826 66 103C64.4939 102.317 63.6852 102.174 62 102z" transform="matrix(2.8488373756408687, 0, 0, 2.8488373756408687, 126.817853671482, 5.195819747652578)"/><path style="fill:#b4bec6; stroke:none;" d="M63.6667 103.333C63.2223 103.778 64.2778 103.722 64.3333 103.667C64.7778 103.222 63.7222 103.278 63.6667 103.333z" transform="matrix(2.8488373756408687, 0, 0, 2.8488373756408687, 126.817853671482, 5.195819747652578)"/><path style="fill:#596e82; stroke:none;" d="M241 103C242.769 103.779 244.036 103.912 246 104C244.231 103.221 242.964 103.088 241 103z" transform="matrix(2.8488373756408687, 0, 0, 2.8488373756408687, 126.817853671482, 5.195819747652578)"/><path style="fill:#b2bcc5; stroke:none;" d="M242 104C243.248 104.685 243.548 104.749 245 105C243.752 104.315 243.452 104.251 242 104z" transform="matrix(2.8488373756408687, 0, 0, 2.8488373756408687, 126.817853671482, 5.195819747652578)"/><path style="fill:#768797; stroke:none;" d="M245.667 104.333C245.222 104.778 246.278 104.722 246.333 104.667C246.778 104.222 245.722 104.278 245.667 104.333z" transform="matrix(2.8488373756408687, 0, 0, 2.8488373756408687, 126.817853671482, 5.195819747652578)"/><path style="fill:#b2bbc4; stroke:none;" d="M246 105C247.248 105.685 247.548 105.749 249 106C247.752 105.315 247.452 105.251 246 105z" transform="matrix(2.8488373756408687, 0, 0, 2.8488373756408687, 126.817853671482, 5.195819747652578)"/><path style="fill:#9ba8b4; stroke:none;" d="M249.667 106.333C249.222 106.778 250.278 106.722 250.333 106.667C250.778 106.222 249.722 106.278 249.667 106.333z" transform="matrix(2.8488373756408687, 0, 0, 2.8488373756408687, 126.817853671482, 5.195819747652578)"/><path style="fill:#c4ccd3; stroke:none;" d="M251 107L252 108L251 107z" transform="matrix(2.8488373756408687, 0, 0, 2.8488373756408687, 126.817853671482, 5.195819747652578)"/><path style="fill:#93a0ae; stroke:none;" d="M252 107L253 108L252 107z" transform="matrix(2.8488373756408687, 0, 0, 2.8488373756408687, 126.817853671482, 5.195819747652578)"/><path style="fill:#a3aeba; stroke:none;" d="M253 108L254 109L253 108z" transform="matrix(2.8488373756408687, 0, 0, 2.8488373756408687, 126.817853671482, 5.195819747652578)"/><path style="fill:#b8c1ca; stroke:none;" d="M254 109L255 110L254 109z" transform="matrix(2.8488373756408687, 0, 0, 2.8488373756408687, 126.817853671482, 5.195819747652578)"/><path style="fill:#c5cdd4; stroke:none;" d="M255 110L256 111L255 110z" transform="matrix(2.8488373756408687, 0, 0, 2.8488373756408687, 126.817853671482, 5.195819747652578)"/><path style="fill:#8292a1; stroke:none;" d="M256 110L257 111L256 110z" transform="matrix(2.8488373756408687, 0, 0, 2.8488373756408687, 126.817853671482, 5.195819747652578)"/><path style="fill:#cad0d7; stroke:none;" d="M256 111L257 112L256 111z" transform="matrix(2.8488373756408687, 0, 0, 2.8488373756408687, 126.817853671482, 5.195819747652578)"/><path style="fill:#8494a3; stroke:none;" d="M257 111L258 112L257 111z" transform="matrix(2.8488373756408687, 0, 0, 2.8488373756408687, 126.817853671482, 5.195819747652578)"/><path style="fill:#cad1d7; stroke:none;" d="M257 112L258 113L257 112z" transform="matrix(2.8488373756408687, 0, 0, 2.8488373756408687, 126.817853671482, 5.195819747652578)"/><path style="fill:#7e8e9d; stroke:none;" d="M258 112L259 113L258 112z" transform="matrix(2.8488373756408687, 0, 0, 2.8488373756408687, 126.817853671482, 5.195819747652578)"/><path style="fill:#c0c8cf; stroke:none;" d="M258 113L259 114L258 113z" transform="matrix(2.8488373756408687, 0, 0, 2.8488373756408687, 126.817853671482, 5.195819747652578)"/><path style="fill:#afb9c3; stroke:none;" d="M259 114L260 115L259 114z" transform="matrix(2.8488373756408687, 0, 0, 2.8488373756408687, 126.817853671482, 5.195819747652578)"/><path style="fill:#9ba7b4; stroke:none;" d="M260 115L261 116L260 115z" transform="matrix(2.8488373756408687, 0, 0, 2.8488373756408687, 126.817853671482, 5.195819747652578)"/><path style="fill:#7f90a0; stroke:none;" d="M261 116L262 117L261 116z" transform="matrix(2.8488373756408687, 0, 0, 2.8488373756408687, 126.817853671482, 5.195819747652578)"/><path style="fill:#b2bcc5; stroke:none;" d="M261 117L262 118L261 117z" transform="matrix(2.8488373756408687, 0, 0, 2.8488373756408687, 126.817853671482, 5.195819747652578)"/><path style="fill:#92a0ad; stroke:none;" d="M262 118L263 122C263.393 120.076 263.146 119.64 262 118z" transform="matrix(2.8488373756408687, 0, 0, 2.8488373756408687, 126.817853671482, 5.195819747652578)"/><path style="fill:#c7ced4; stroke:none;" d="M263.333 122.667C263.278 122.722 263.222 123.778 263.667 123.333C263.722 123.278 263.778 122.222 263.333 122.667z" transform="matrix(2.8488373756408687, 0, 0, 2.8488373756408687, 126.817853671482, 5.195819747652578)"/><path style="fill:#6a7d8f; stroke:none;" d="M264.333 122.667C264.278 122.722 264.222 123.778 264.667 123.333C264.722 123.278 264.778 122.222 264.333 122.667z" transform="matrix(2.8488373756408687, 0, 0, 2.8488373756408687, 126.817853671482, 5.195819747652578)"/><path style="fill:#bac3ca; stroke:none;" d="M62.6667 153.333C62.2222 153.778 63.2778 153.722 63.3333 153.667C63.7778 153.222 62.7222 153.278 62.6667 153.333z" transform="matrix(2.8488373756408687, 0, 0, 2.8488373756408687, 126.817853671482, 5.195819747652578)"/><path style="fill:#909eac; stroke:none;" d="M64.6667 153.333C64.2222 153.778 65.2778 153.722 65.3333 153.667C65.7777 153.222 64.7222 153.278 64.6667 153.333z" transform="matrix(2.8488373756408687, 0, 0, 2.8488373756408687, 126.817853671482, 5.195819747652578)"/><path style="fill:#8b99a8; stroke:none;" d="M193 153C194.248 153.685 194.549 153.749 196 154C194.752 153.315 194.452 153.251 193 153z" transform="matrix(2.8488373756408687, 0, 0, 2.8488373756408687, 126.817853671482, 5.195819747652578)"/><path style="fill:#ccd2d9; stroke:none;" d="M196.667 153.333C196.222 153.778 197.278 153.722 197.333 153.667C197.778 153.222 196.722 153.278 196.667 153.333z" transform="matrix(2.8488373756408687, 0, 0, 2.8488373756408687, 126.817853671482, 5.195819747652578)"/><path style="fill:#98a4b2; stroke:none;" d="M60.6667 154.333C60.2222 154.778 61.2778 154.722 61.3333 154.667C61.7778 154.222 60.7222 154.278 60.6667 154.333z" transform="matrix(2.8488373756408687, 0, 0, 2.8488373756408687, 126.817853671482, 5.195819747652578)"/><path style="fill: rgb(255, 255, 255); stroke: none;" d="M62 154.613C40.6967 160.352 45 186.36 45 203C45 211.865 44.3215 220.487 49.9282 227.985C56.2081 236.382 65.3962 237 75 237C89.0969 237 107.029 233.709 119 242.61C135.192 254.648 130.999 276.266 131 294C131.001 304.929 133.4 316.903 145 321.336C154.241 324.868 166.282 323 176 323C183.817 323 192.417 323.926 200 321.61C214.883 317.064 214 301.43 214 289L214 198C214 187.121 217.017 171.12 209.582 162.093C200.865 151.51 185.083 154 173 154L98 154C86.8529 154 72.7864 151.708 62 154.613z" transform="matrix(1.0254558324813843, 0, 0, 1.0254558324813843, -16.98694064004144, 406.2670955965314)"/><path style="fill:#8f9daa; stroke:none;" d="M197 154C198.248 154.685 198.549 154.749 200 155C198.752 154.315 198.452 154.251 197 154z" transform="matrix(2.8488373756408687, 0, 0, 2.8488373756408687, 126.817853671482, 5.195819747652578)"/><path style="fill:#8796a5; stroke:none;" d="M58.6667 155.333C58.2222 155.778 59.2778 155.722 59.3333 155.667C59.7778 155.222 58.7222 155.278 58.6667 155.333z" transform="matrix(2.8488373756408687, 0, 0, 2.8488373756408687, 126.817853671482, 5.195819747652578)"/><path style="fill:#5b7083; stroke:none;" d="M198 155C199.248 155.685 199.549 155.749 201 156C199.752 155.315 199.452 155.251 198 155z" transform="matrix(2.8488373756408687, 0, 0, 2.8488373756408687, 126.817853671482, 5.195819747652578)"/><path style="fill:#a8b3bd; stroke:none;" d="M201 155L202 156L201 155z" transform="matrix(2.8488373756408687, 0, 0, 2.8488373756408687, 126.817853671482, 5.195819747652578)"/><path style="fill:#c1c9d0; stroke:none;" d="M56 156L57 157L56 156z" transform="matrix(2.8488373756408687, 0, 0, 2.8488373756408687, 126.817853671482, 5.195819747652578)"/><path style="fill:#7d8f9e; stroke:none;" d="M202 156L203 157L202 156z" transform="matrix(2.8488373756408687, 0, 0, 2.8488373756408687, 126.817853671482, 5.195819747652578)"/><path style="fill:#b1bbc5; stroke:none;" d="M203 156L204 157L203 156z" transform="matrix(2.8488373756408687, 0, 0, 2.8488373756408687, 126.817853671482, 5.195819747652578)"/><path style="fill:#a2aeb9; stroke:none;" d="M55 157L56 158L55 157z" transform="matrix(2.8488373756408687, 0, 0, 2.8488373756408687, 126.817853671482, 5.195819747652578)"/><path style="fill:#94a2af; stroke:none;" d="M204 157L205 158L204 157z" transform="matrix(2.8488373756408687, 0, 0, 2.8488373756408687, 126.817853671482, 5.195819747652578)"/><path style="fill:#8a99a8; stroke:none;" d="M54 158L55 159L54 158z" transform="matrix(2.8488373756408687, 0, 0, 2.8488373756408687, 126.817853671482, 5.195819747652578)"/><path style="fill:#7c8d9d; stroke:none;" d="M205 158L206 159L205 158z" transform="matrix(2.8488373756408687, 0, 0, 2.8488373756408687, 126.817853671482, 5.195819747652578)"/><path style="fill:#bec6ce; stroke:none;" d="M206 158L207 159L206 158z" transform="matrix(2.8488373756408687, 0, 0, 2.8488373756408687, 126.817853671482, 5.195819747652578)"/><path style="fill:#cbd1d8; stroke:none;" d="M52 159L53 160L52 159z" transform="matrix(2.8488373756408687, 0, 0, 2.8488373756408687, 126.817853671482, 5.195819747652578)"/><path style="fill:#7c8d9d; stroke:none;" d="M53 159L54 160L53 159z" transform="matrix(2.8488373756408687, 0, 0, 2.8488373756408687, 126.817853671482, 5.195819747652578)"/><path style="fill:#b4bdc7; stroke:none;" d="M207 159L208 160L207 159z" transform="matrix(2.8488373756408687, 0, 0, 2.8488373756408687, 126.817853671482, 5.195819747652578)"/><path style="fill:#cbd2d8; stroke:none;" d="M51 160L52 161L51 160z" transform="matrix(2.8488373756408687, 0, 0, 2.8488373756408687, 126.817853671482, 5.195819747652578)"/><path style="fill:#b2bcc5; stroke:none;" d="M208 160L209 161L208 160z" transform="matrix(2.8488373756408687, 0, 0, 2.8488373756408687, 126.817853671482, 5.195819747652578)"/><path style="fill:#b8c1ca; stroke:none;" d="M209 161L210 162L209 161z" transform="matrix(2.8488373756408687, 0, 0, 2.8488373756408687, 126.817853671482, 5.195819747652578)"/><path style="fill:#8091a0; stroke:none;" d="M50 162L51 163L50 162z" transform="matrix(2.8488373756408687, 0, 0, 2.8488373756408687, 126.817853671482, 5.195819747652578)"/><path style="fill:#c6ced5; stroke:none;" d="M210 162L211 163L210 162z" transform="matrix(2.8488373756408687, 0, 0, 2.8488373756408687, 126.817853671482, 5.195819747652578)"/><path style="fill:#9aa6b3; stroke:none;" d="M49 163L50 164L49 163z" transform="matrix(2.8488373756408687, 0, 0, 2.8488373756408687, 126.817853671482, 5.195819747652578)"/><path style="fill:#c0c8cf; stroke:none;" d="M48 164L49 165L48 164z" transform="matrix(2.8488373756408687, 0, 0, 2.8488373756408687, 126.817853671482, 5.195819747652578)"/><path style="fill:#9daab5; stroke:none;" d="M211 164L212 165L211 164z" transform="matrix(2.8488373756408687, 0, 0, 2.8488373756408687, 126.817853671482, 5.195819747652578)"/><path style="fill:#c4cbd3; stroke:none;" d="M212 165L213 166L212 165z" transform="matrix(2.8488373756408687, 0, 0, 2.8488373756408687, 126.817853671482, 5.195819747652578)"/><path style="fill:#aab4be; stroke:none;" d="M47 166L48 167L47 166z" transform="matrix(2.8488373756408687, 0, 0, 2.8488373756408687, 126.817853671482, 5.195819747652578)"/><path style="fill:#5f7387; stroke:none;" d="M212.333 166.667C212.278 166.722 212.222 167.778 212.667 167.333C212.722 167.278 212.778 166.222 212.333 166.667z" transform="matrix(2.8488373756408687, 0, 0, 2.8488373756408687, 126.817853671482, 5.195819747652578)"/><path style="fill:#bfc7cf; stroke:none;" d="M213 167L214 168L213 167z" transform="matrix(2.8488373756408687, 0, 0, 2.8488373756408687, 126.817853671482, 5.195819747652578)"/><path style="fill:#b2bbc4; stroke:none;" d="M46 168L47 169L46 168z" transform="matrix(2.8488373756408687, 0, 0, 2.8488373756408687, 126.817853671482, 5.195819747652578)"/><path style="fill:#65798c; stroke:none;" d="M213.333 168.667C213.278 168.722 213.222 169.778 213.667 169.333C213.722 169.278 213.778 168.222 213.333 168.667z" transform="matrix(2.8488373756408687, 0, 0, 2.8488373756408687, 126.817853671482, 5.195819747652578)"/><path style="fill:#a6b1bc; stroke:none;" d="M214.333 169.667C214.278 169.722 214.222 170.778 214.667 170.333C214.722 170.278 214.778 169.222 214.333 169.667z" transform="matrix(2.8488373756408687, 0, 0, 2.8488373756408687, 126.817853671482, 5.195819747652578)"/><path style="fill:#7b8c9b; stroke:none;" d="M45.3333 171.667C45.2777 171.722 45.2222 172.778 45.6667 172.333C45.7222 172.278 45.7778 171.222 45.3333 171.667z" transform="matrix(2.8488373756408687, 0, 0, 2.8488373756408687, 126.817853671482, 5.195819747652578)"/><path style="fill:#aab4be; stroke:none;" d="M215.333 173.667C215.278 173.722 215.222 174.778 215.667 174.333C215.722 174.278 215.778 173.222 215.333 173.667z" transform="matrix(2.8488373756408687, 0, 0, 2.8488373756408687, 126.817853671482, 5.195819747652578)"/><path style="fill:#a4b1bb; stroke:none;" d="M45.3333 218.667C45.2778 218.722 45.2222 219.778 45.6667 219.333C45.7222 219.278 45.7778 218.222 45.3333 218.667z" transform="matrix(2.8488373756408687, 0, 0, 2.8488373756408687, 126.817853671482, 5.195819747652578)"/><path style="fill:#adb8c1; stroke:none;" d="M46 222L47 223L46 222z" transform="matrix(2.8488373756408687, 0, 0, 2.8488373756408687, 126.817853671482, 5.195819747652578)"/><path style="fill:#a4b0ba; stroke:none;" d="M47 224L48 225L47 224z" transform="matrix(2.8488373756408687, 0, 0, 2.8488373756408687, 126.817853671482, 5.195819747652578)"/><path style="fill:#bbc2cb; stroke:none;" d="M48 226L49 227L48 226z" transform="matrix(2.8488373756408687, 0, 0, 2.8488373756408687, 126.817853671482, 5.195819747652578)"/><path style="fill:#929fac; stroke:none;" d="M49 227L50 228L49 227z" transform="matrix(2.8488373756408687, 0, 0, 2.8488373756408687, 126.817853671482, 5.195819747652578)"/><path style="fill:#788999; stroke:none;" d="M50 228L51 229L50 228z" transform="matrix(2.8488373756408687, 0, 0, 2.8488373756408687, 126.817853671482, 5.195819747652578)"/><path style="fill:#c7ced5; stroke:none;" d="M51 230L52 231L51 230z" transform="matrix(2.8488373756408687, 0, 0, 2.8488373756408687, 126.817853671482, 5.195819747652578)"/><path style="fill:#c7ced4; stroke:none;" d="M52 231L53 232L52 231z" transform="matrix(2.8488373756408687, 0, 0, 2.8488373756408687, 126.817853671482, 5.195819747652578)"/><path style="fill:#9aa7b3; stroke:none;" d="M55 233L56 234L55 233z" transform="matrix(2.8488373756408687, 0, 0, 2.8488373756408687, 126.817853671482, 5.195819747652578)"/><path style="fill:#bdc6ce; stroke:none;" d="M56 234L57 235L56 234z" transform="matrix(2.8488373756408687, 0, 0, 2.8488373756408687, 126.817853671482, 5.195819747652578)"/><path style="fill:#5b7084; stroke:none;" d="M57.6667 234.333C57.2222 234.778 58.2778 234.722 58.3333 234.667C58.7778 234.222 57.7222 234.278 57.6667 234.333z" transform="matrix(2.8488373756408687, 0, 0, 2.8488373756408687, 126.817853671482, 5.195819747652578)"/><path style="fill:#b2bbc5; stroke:none;" d="M58 235L59 236L58 235z" transform="matrix(2.8488373756408687, 0, 0, 2.8488373756408687, 126.817853671482, 5.195819747652578)"/><path style="fill:#5f7488; stroke:none;" d="M59.6667 235.333C59.2222 235.778 60.2778 235.722 60.3333 235.667C60.7778 235.222 59.7222 235.278 59.6667 235.333z" transform="matrix(2.8488373756408687, 0, 0, 2.8488373756408687, 126.817853671482, 5.195819747652578)"/><path style="fill:#8f9eab; stroke:none;" d="M60.6667 236.333C60.2222 236.778 61.2778 236.722 61.3333 236.667C61.7778 236.222 60.7222 236.278 60.6667 236.333z" transform="matrix(2.8488373756408687, 0, 0, 2.8488373756408687, 126.817853671482, 5.195819747652578)"/><path style="fill:#9da8b5; stroke:none;" d="M63.6667 237.333C63.2222 237.778 64.2778 237.722 64.3333 237.667C64.7778 237.222 63.7222 237.278 63.6667 237.333z" transform="matrix(2.8488373756408687, 0, 0, 2.8488373756408687, 126.817853671482, 5.195819747652578)"/><path style="fill:#a5b0ba; stroke:none;" d="M107 238C108.248 238.685 108.548 238.749 110 239C108.752 238.315 108.452 238.251 107 238z" transform="matrix(2.8488373756408687, 0, 0, 2.8488373756408687, 126.817853671482, 5.195819747652578)"/><path style="fill:#6a7d8f; stroke:none;" d="M110 238C111.248 238.685 111.548 238.749 113 239C111.752 238.315 111.452 238.251 110 238z" transform="matrix(2.8488373756408687, 0, 0, 2.8488373756408687, 126.817853671482, 5.195819747652578)"/><path style="fill:#b0b9c3; stroke:none;" d="M111.667 239.333C111.222 239.778 112.278 239.722 112.333 239.667C112.778 239.222 111.722 239.278 111.667 239.333z" transform="matrix(2.8488373756408687, 0, 0, 2.8488373756408687, 126.817853671482, 5.195819747652578)"/><path style="fill:#687b8f; stroke:none;" d="M113.667 239.333C113.222 239.778 114.278 239.722 114.333 239.667C114.778 239.222 113.722 239.278 113.667 239.333z" transform="matrix(2.8488373756408687, 0, 0, 2.8488373756408687, 126.817853671482, 5.195819747652578)"/><path style="fill:#9fabb6; stroke:none;" d="M114.667 240.333C114.222 240.778 115.278 240.722 115.333 240.667C115.778 240.222 114.722 240.278 114.667 240.333z" transform="matrix(2.8488373756408687, 0, 0, 2.8488373756408687, 126.817853671482, 5.195819747652578)"/><path style="fill:#9eaab5; stroke:none;" d="M117 241L118 242L117 241z" transform="matrix(2.8488373756408687, 0, 0, 2.8488373756408687, 126.817853671482, 5.195819747652578)"/><path style="fill:#c8cfd6; stroke:none;" d="M118 242L119 243L118 242z" transform="matrix(2.8488373756408687, 0, 0, 2.8488373756408687, 126.817853671482, 5.195819747652578)"/><path style="fill:#8293a1; stroke:none;" d="M119 242L120 243L119 242z" transform="matrix(2.8488373756408687, 0, 0, 2.8488373756408687, 126.817853671482, 5.195819747652578)"/><path style="fill:#9fabb8; stroke:none;" d="M120 243L121 244L120 243z" transform="matrix(2.8488373756408687, 0, 0, 2.8488373756408687, 126.817853671482, 5.195819747652578)"/><path style="fill:#b2bcc6; stroke:none;" d="M121 244L122 245L121 244z" transform="matrix(2.8488373756408687, 0, 0, 2.8488373756408687, 126.817853671482, 5.195819747652578)"/><path style="fill:#bcc4cc; stroke:none;" d="M122 245L123 246L122 245z" transform="matrix(2.8488373756408687, 0, 0, 2.8488373756408687, 126.817853671482, 5.195819747652578)"/><path style="fill:#bbc4cb; stroke:none;" d="M123 246L124 247L123 246z" transform="matrix(2.8488373756408687, 0, 0, 2.8488373756408687, 126.817853671482, 5.195819747652578)"/><path style="fill:#aebac3; stroke:none;" d="M124 247L125 248L124 247z" transform="matrix(2.8488373756408687, 0, 0, 2.8488373756408687, 126.817853671482, 5.195819747652578)"/><path style="fill:#99a5b1; stroke:none;" d="M125 248L126 249L125 248z" transform="matrix(2.8488373756408687, 0, 0, 2.8488373756408687, 126.817853671482, 5.195819747652578)"/><path style="fill:#738595; stroke:none;" d="M126 249L127 250L126 249z" transform="matrix(2.8488373756408687, 0, 0, 2.8488373756408687, 126.817853671482, 5.195819747652578)"/><path style="fill:#c4ccd3; stroke:none;" d="M126 250L127 251L126 250z" transform="matrix(2.8488373756408687, 0, 0, 2.8488373756408687, 126.817853671482, 5.195819747652578)"/><path style="fill:#8d9caa; stroke:none;" d="M127 251L128 252L127 251z" transform="matrix(2.8488373756408687, 0, 0, 2.8488373756408687, 126.817853671482, 5.195819747652578)"/><path style="fill:#8998a7; stroke:none;" d="M128 253L129 254L128 253z" transform="matrix(2.8488373756408687, 0, 0, 2.8488373756408687, 126.817853671482, 5.195819747652578)"/><path style="fill:#c9d0d5; stroke:none;" d="M128 254L129 255L128 254z" transform="matrix(2.8488373756408687, 0, 0, 2.8488373756408687, 126.817853671482, 5.195819747652578)"/><path style="fill: rgb(255, 255, 255); stroke: none;" d="M53.0008 287.742C42.9427 291.605 41.5259 312.479 48.3943 319.772C53.247 324.924 68.7576 324.405 74.9599 321.852C83.4989 318.336 84.8928 300.11 80.2577 293.043C75.5374 285.846 60.5433 284.846 53.0008 287.742z" transform="matrix(1.084070086479187, 0, 0, 1.084070086479187, -23.885074871608822, 391.3853206941878)"/><path style="fill:#b4bec7; stroke:none;" d="M349 301L349 304C349.696 302.446 349.696 302.554 349 301z" transform="matrix(2.8488373756408687, 0, 0, 2.8488373756408687, 126.817853671482, 5.195819747652578)"/><path style="fill:#8a99a8; stroke:none;" d="M348.333 304.667C348.278 304.722 348.222 305.778 348.667 305.333C348.722 305.278 348.778 304.222 348.333 304.667z" transform="matrix(2.8488373756408687, 0, 0, 2.8488373756408687, 126.817853671482, 5.195819747652578)"/><path style="fill:#d0d6dc; stroke:none;" d="M348.333 306.667C348.278 306.722 348.222 307.778 348.667 307.333C348.722 307.278 348.778 306.222 348.333 306.667z" transform="matrix(2.8488373756408687, 0, 0, 2.8488373756408687, 126.817853671482, 5.195819747652578)"/><path style="fill:#acb6c1; stroke:none;" d="M132 308L133 309L132 308z" transform="matrix(2.8488373756408687, 0, 0, 2.8488373756408687, 126.817853671482, 5.195819747652578)"/><path style="fill:#909fac; stroke:none;" d="M347 308L348 309L347 308z" transform="matrix(2.8488373756408687, 0, 0, 2.8488373756408687, 126.817853671482, 5.195819747652578)"/><path style="fill:#bbc3cc; stroke:none;" d="M213 309L214 310L213 309z" transform="matrix(2.8488373756408687, 0, 0, 2.8488373756408687, 126.817853671482, 5.195819747652578)"/><path style="fill:#a8b3be; stroke:none;" d="M267.333 309.667C267.278 309.722 267.222 310.778 267.667 310.333C267.722 310.278 267.778 309.222 267.333 309.667z" transform="matrix(2.8488373756408687, 0, 0, 2.8488373756408687, 126.817853671482, 5.195819747652578)"/><path style="fill:#c2cad2; stroke:none;" d="M347 309L348 310L347 309z" transform="matrix(2.8488373756408687, 0, 0, 2.8488373756408687, 126.817853671482, 5.195819747652578)"/><path style="fill:#a3adba; stroke:none;" d="M133 310L134 311L133 310z" transform="matrix(2.8488373756408687, 0, 0, 2.8488373756408687, 126.817853671482, 5.195819747652578)"/><path style="fill:#81919f; stroke:none;" d="M212 310L213 311L212 310z" transform="matrix(2.8488373756408687, 0, 0, 2.8488373756408687, 126.817853671482, 5.195819747652578)"/><path style="fill:#8a99a6; stroke:none;" d="M346 310L347 311L346 310z" transform="matrix(2.8488373756408687, 0, 0, 2.8488373756408687, 126.817853671482, 5.195819747652578)"/><path style="fill:#c0c9d0; stroke:none;" d="M212 311L213 312L212 311z" transform="matrix(2.8488373756408687, 0, 0, 2.8488373756408687, 126.817853671482, 5.195819747652578)"/><path style="fill:#7f90a0; stroke:none;" d="M268 311L269 312L268 311z" transform="matrix(2.8488373756408687, 0, 0, 2.8488373756408687, 126.817853671482, 5.195819747652578)"/><path style="fill:#c5cdd4; stroke:none;" d="M346 311L347 312L346 311z" transform="matrix(2.8488373756408687, 0, 0, 2.8488373756408687, 126.817853671482, 5.195819747652578)"/><path style="fill:#b2bbc5; stroke:none;" d="M134 312L135 313L134 312z" transform="matrix(2.8488373756408687, 0, 0, 2.8488373756408687, 126.817853671482, 5.195819747652578)"/><path style="fill:#95a3af; stroke:none;" d="M211 312L212 313L211 312z" transform="matrix(2.8488373756408687, 0, 0, 2.8488373756408687, 126.817853671482, 5.195819747652578)"/><path style="fill:#b8c1ca; stroke:none;" d="M268 312L269 313L268 312z" transform="matrix(2.8488373756408687, 0, 0, 2.8488373756408687, 126.817853671482, 5.195819747652578)"/><path style="fill:#9eaab6; stroke:none;" d="M345 312L346 313L345 312z" transform="matrix(2.8488373756408687, 0, 0, 2.8488373756408687, 126.817853671482, 5.195819747652578)"/><path style="fill:#8898a6; stroke:none;" d="M135 313L136 314L135 313z" transform="matrix(2.8488373756408687, 0, 0, 2.8488373756408687, 126.817853671482, 5.195819747652578)"/><path style="fill:#768898; stroke:none;" d="M210 313L211 314L210 313z" transform="matrix(2.8488373756408687, 0, 0, 2.8488373756408687, 126.817853671482, 5.195819747652578)"/><path style="fill:#9ba7b3; stroke:none;" d="M269 313L270 314L269 313z" transform="matrix(2.8488373756408687, 0, 0, 2.8488373756408687, 126.817853671482, 5.195819747652578)"/><path style="fill:#7a8a9a; stroke:none;" d="M344 313L345 314L344 313z" transform="matrix(2.8488373756408687, 0, 0, 2.8488373756408687, 126.817853671482, 5.195819747652578)"/><path style="fill:#c4cbd2; stroke:none;" d="M210 314L211 315L210 314z" transform="matrix(2.8488373756408687, 0, 0, 2.8488373756408687, 126.817853671482, 5.195819747652578)"/><path style="fill:#8595a4; stroke:none;" d="M270 314L271 315L270 314z" transform="matrix(2.8488373756408687, 0, 0, 2.8488373756408687, 126.817853671482, 5.195819747652578)"/><path style="fill:#c8ced5; stroke:none;" d="M344 314L345 315L344 314z" transform="matrix(2.8488373756408687, 0, 0, 2.8488373756408687, 126.817853671482, 5.195819747652578)"/><path style="fill:#cbd2d8; stroke:none;" d="M136 315L137 316L136 315z" transform="matrix(2.8488373756408687, 0, 0, 2.8488373756408687, 126.817853671482, 5.195819747652578)"/><path style="fill:#b3bcc5; stroke:none;" d="M209 315L210 316L209 315z" transform="matrix(2.8488373756408687, 0, 0, 2.8488373756408687, 126.817853671482, 5.195819747652578)"/><path style="fill:#cfd5db; stroke:none;" d="M270 315L271 316L270 315z" transform="matrix(2.8488373756408687, 0, 0, 2.8488373756408687, 126.817853671482, 5.195819747652578)"/><path style="fill:#798a9b; stroke:none;" d="M271 315L272 316L271 315z" transform="matrix(2.8488373756408687, 0, 0, 2.8488373756408687, 126.817853671482, 5.195819747652578)"/><path style="fill:#b7bfc8; stroke:none;" d="M343 315L344 316L343 315z" transform="matrix(2.8488373756408687, 0, 0, 2.8488373756408687, 126.817853671482, 5.195819747652578)"/><path style="fill:#c0c8cf; stroke:none;" d="M137 316L138 317L137 316z" transform="matrix(2.8488373756408687, 0, 0, 2.8488373756408687, 126.817853671482, 5.195819747652578)"/><path style="fill:#abb6c0; stroke:none;" d="M208 316L209 317L208 316z" transform="matrix(2.8488373756408687, 0, 0, 2.8488373756408687, 126.817853671482, 5.195819747652578)"/><path style="fill:#c7cfd5; stroke:none;" d="M271 316L272 317L271 316z" transform="matrix(2.8488373756408687, 0, 0, 2.8488373756408687, 126.817853671482, 5.195819747652578)"/><path style="fill:#afb9c2; stroke:none;" d="M342 316L343 317L342 316z" transform="matrix(2.8488373756408687, 0, 0, 2.8488373756408687, 126.817853671482, 5.195819747652578)"/><path style="fill:#c1c8d0; stroke:none;" d="M138 317L139 318L138 317z" transform="matrix(2.8488373756408687, 0, 0, 2.8488373756408687, 126.817853671482, 5.195819747652578)"/><path style="fill:#aeb8c1; stroke:none;" d="M207 317L208 318L207 317z" transform="matrix(2.8488373756408687, 0, 0, 2.8488373756408687, 126.817853671482, 5.195819747652578)"/><path style="fill:#c9cfd6; stroke:none;" d="M272 317L273 318L272 317z" transform="matrix(2.8488373756408687, 0, 0, 2.8488373756408687, 126.817853671482, 5.195819747652578)"/><path style="fill:#b0bbc3; stroke:none;" d="M341 317L342 318L341 317z" transform="matrix(2.8488373756408687, 0, 0, 2.8488373756408687, 126.817853671482, 5.195819747652578)"/><path style="fill:#ccd2d9; stroke:none;" d="M139 318L140 319L139 318z" transform="matrix(2.8488373756408687, 0, 0, 2.8488373756408687, 126.817853671482, 5.195819747652578)"/><path style="fill:#6d8092; stroke:none;" d="M205 318L206 319L205 318z" transform="matrix(2.8488373756408687, 0, 0, 2.8488373756408687, 126.817853671482, 5.195819747652578)"/><path style="fill:#bac3cc; stroke:none;" d="M206 318L207 319L206 318z" transform="matrix(2.8488373756408687, 0, 0, 2.8488373756408687, 126.817853671482, 5.195819747652578)"/><path style="fill:#8595a4; stroke:none;" d="M274 318L275 319L274 318z" transform="matrix(2.8488373756408687, 0, 0, 2.8488373756408687, 126.817853671482, 5.195819747652578)"/><path style="fill:#bcc4cc; stroke:none;" d="M340 318L341 319L340 318z" transform="matrix(2.8488373756408687, 0, 0, 2.8488373756408687, 126.817853671482, 5.195819747652578)"/><path style="fill:#909eab; stroke:none;" d="M141 319L142 320L141 319z" transform="matrix(2.8488373756408687, 0, 0, 2.8488373756408687, 126.817853671482, 5.195819747652578)"/><path style="fill:#8392a0; stroke:none;" d="M204 319L205 320L204 319z" transform="matrix(2.8488373756408687, 0, 0, 2.8488373756408687, 126.817853671482, 5.195819747652578)"/><path style="fill:#9ba7b4; stroke:none;" d="M275 319L276 320L275 319z" transform="matrix(2.8488373756408687, 0, 0, 2.8488373756408687, 126.817853671482, 5.195819747652578)"/><path style="fill:#8493a3; stroke:none;" d="M338 319L339 320L338 319z" transform="matrix(2.8488373756408687, 0, 0, 2.8488373756408687, 126.817853671482, 5.195819747652578)"/><path style="fill:#b6bec7; stroke:none;" d="M142 320L143 321L142 320z" transform="matrix(2.8488373756408687, 0, 0, 2.8488373756408687, 126.817853671482, 5.195819747652578)"/><path style="fill:#aab5bf; stroke:none;" d="M203 320L204 321L203 320z" transform="matrix(2.8488373756408687, 0, 0, 2.8488373756408687, 126.817853671482, 5.195819747652578)"/><path style="fill:#c0c8d0; stroke:none;" d="M276 320L277 321L276 320z" transform="matrix(2.8488373756408687, 0, 0, 2.8488373756408687, 126.817853671482, 5.195819747652578)"/><path style="fill:#a8b4be; stroke:none;" d="M337 320L338 321L337 320z" transform="matrix(2.8488373756408687, 0, 0, 2.8488373756408687, 126.817853671482, 5.195819747652578)"/><path style="fill:#a6b1bc; stroke:none;" d="M144 321L145 322L144 321z" transform="matrix(2.8488373756408687, 0, 0, 2.8488373756408687, 126.817853671482, 5.195819747652578)"/><path style="fill:#9ca8b5; stroke:none;" d="M201 321L202 322L201 321z" transform="matrix(2.8488373756408687, 0, 0, 2.8488373756408687, 126.817853671482, 5.195819747652578)"/><path style="fill:#afbac3; stroke:none;" d="M278 321L279 322L278 321z" transform="matrix(2.8488373756408687, 0, 0, 2.8488373756408687, 126.817853671482, 5.195819747652578)"/><path style="fill:#9aa8b4; stroke:none;" d="M335 321L336 322L335 321z" transform="matrix(2.8488373756408687, 0, 0, 2.8488373756408687, 126.817853671482, 5.195819747652578)"/><path style="fill:#afbac3; stroke:none;" d="M146 322L147 323L146 322z" transform="matrix(2.8488373756408687, 0, 0, 2.8488373756408687, 126.817853671482, 5.195819747652578)"/><path style="fill:#617589; stroke:none;" d="M147 322C148.248 322.685 148.548 322.749 150 323C148.752 322.315 148.452 322.251 147 322z" transform="matrix(2.8488373756408687, 0, 0, 2.8488373756408687, 126.817853671482, 5.195819747652578)"/><path style="fill:#53697f; stroke:none;" d="M195 322C196.506 322.683 197.315 322.826 199 323C197.494 322.317 196.685 322.174 195 322z" transform="matrix(2.8488373756408687, 0, 0, 2.8488373756408687, 126.817853671482, 5.195819747652578)"/><path style="fill:#a8b2bd; stroke:none;" d="M199 322L200 323L199 322z" transform="matrix(2.8488373756408687, 0, 0, 2.8488373756408687, 126.817853671482, 5.195819747652578)"/><path style="fill:#b8c2ca; stroke:none;" d="M280 322L281 323L280 322z" transform="matrix(2.8488373756408687, 0, 0, 2.8488373756408687, 126.817853671482, 5.195819747652578)"/><path style="fill:#687b8d; stroke:none;" d="M281.667 322.333C281.222 322.778 282.278 322.722 282.333 322.667C282.778 322.222 281.722 322.278 281.667 322.333z" transform="matrix(2.8488373756408687, 0, 0, 2.8488373756408687, 126.817853671482, 5.195819747652578)"/><path style="fill:#5f7386; stroke:none;" d="M330 322C331.248 322.685 331.548 322.749 333 323C331.752 322.315 331.452 322.251 330 322z" transform="matrix(2.8488373756408687, 0, 0, 2.8488373756408687, 126.817853671482, 5.195819747652578)"/><path style="fill:#a6b1bc; stroke:none;" d="M333 322L334 323L333 322z" transform="matrix(2.8488373756408687, 0, 0, 2.8488373756408687, 126.817853671482, 5.195819747652578)"/><path style="fill:#8d9aa9; stroke:none;" d="M149.667 323.333C149.222 323.778 150.278 323.722 150.333 323.667C150.778 323.222 149.722 323.278 149.667 323.333z" transform="matrix(2.8488373756408687, 0, 0, 2.8488373756408687, 126.817853671482, 5.195819747652578)"/><path style="fill:#a8b3bd; stroke:none;" d="M195 323C196.248 323.685 196.548 323.749 198 324C196.752 323.315 196.452 323.251 195 323z" transform="matrix(2.8488373756408687, 0, 0, 2.8488373756408687, 126.817853671482, 5.195819747652578)"/><path style="fill:#93a1ad; stroke:none;" d="M283.667 323.333C283.222 323.778 284.278 323.722 284.333 323.667C284.778 323.222 283.722 323.278 283.667 323.333z" transform="matrix(2.8488373756408687, 0, 0, 2.8488373756408687, 126.817853671482, 5.195819747652578)"/><path style="fill:#8997a5; stroke:none;" d="M328 323C329.248 323.685 329.548 323.749 331 324C329.752 323.315 329.452 323.251 328 323z" transform="matrix(2.8488373756408687, 0, 0, 2.8488373756408687, 126.817853671482, 5.195819747652578)"/><path style="fill:#cdd3d9; stroke:none;" d="M331 323L332 324L331 323z" transform="matrix(2.8488373756408687, 0, 0, 2.8488373756408687, 126.817853671482, 5.195819747652578)"/><path d="M 773.9107055664062 138.4929962158203 L 777.6506958007812 126.41299438476562 L 780.20068359375 126.41299438476562 L 783.9407348632812 138.4929962158203 L 788.1707153320312 126.41299438476562 L 791.210693359375 126.41299438476562 L 785.3607177734375 143.1929931640625 L 782.5507202148438 143.1929931640625 L 779.0206909179688 131.6929931640625 L 778.8306884765625 131.6929931640625 L 775.3007202148438 143.1929931640625 L 772.49072265625 143.1929931640625 L 766.6406860351562 126.41299438476562 L 769.6907348632812 126.41299438476562 L 773.9107055664062 138.4929962158203 ZM 793.8320922851562 143.1929931640625 L 793.8320922851562 126.41299438476562 L 796.6620483398438 126.41299438476562 L 796.6620483398438 133.6929931640625 L 804.9920654296875 133.6929931640625 L 804.9920654296875 126.41299438476562 L 807.8220825195312 126.41299438476562 L 807.8220825195312 143.1929931640625 L 804.9920654296875 143.1929931640625 L 804.9920654296875 136.33299255371094 L 796.6620483398438 136.33299255371094 L 796.6620483398438 143.1929931640625 L 793.8320922851562 143.1929931640625 ZM 812.4796752929688 126.41299438476562 L 815.3096313476562 126.41299438476562 L 815.3096313476562 143.1929931640625 L 812.4796752929688 143.1929931640625 L 812.4796752929688 126.41299438476562 ZM 828.5374755859375 129.01300048828125 L 819.0774536132812 129.01300048828125 L 819.0774536132812 126.41299438476562 L 832.4674682617188 126.41299438476562 L 832.4674682617188 128.62298583984375 L 822.7274780273438 140.50299072265625 L 822.7274780273438 140.572998046875 L 832.617431640625 140.572998046875 L 832.617431640625 143.1929931640625 L 818.7674560546875 143.1929931640625 L 818.7674560546875 141.01300048828125 L 828.5374755859375 129.08299255371094 L 828.5374755859375 129.01300048828125 ZM 847.777099609375 135.03298950195312 L 850.6171264648438 135.03298950195312 L 850.6171264648438 140.7729949951172 C 849.0304565429688 142.51300048828125 846.7637939453125 143.38299560546875 843.8170776367188 143.38299560546875 C 841.3370971679688 143.38299560546875 839.2637939453125 142.5663299560547 837.5971069335938 140.93299865722656 C 835.9237670898438 139.3063201904297 835.0870971679688 137.2429962158203 835.0870971679688 134.7429962158203 C 835.0870971679688 132.24966430664062 835.9370727539062 130.16966247558594 837.6370849609375 128.50299072265625 C 839.34375 126.8429946899414 841.4037475585938 126.01299285888672 843.8170776367188 126.01299285888672 C 846.2371215820312 126.01299285888672 848.2470703125 126.71632385253906 849.8471069335938 128.12298583984375 L 848.3370971679688 130.28298950195312 C 847.6771240234375 129.72299194335938 847.01708984375 129.33299255371094 846.3571166992188 129.1129913330078 C 845.6904296875 128.899658203125 844.9171142578125 128.79299926757812 844.037109375 128.79299926757812 C 842.34375 128.79299926757812 840.92041015625 129.33966064453125 839.76708984375 130.43299865722656 C 838.61376953125 131.53298950195312 838.037109375 132.97299194335938 838.037109375 134.75299072265625 C 838.037109375 136.53965759277344 838.5971069335938 137.97299194335938 839.7171020507812 139.05299377441406 C 840.8370971679688 140.13299560546875 842.1937866210938 140.67298889160156 843.787109375 140.67298889160156 C 845.3804321289062 140.67298889160156 846.71044921875 140.3296661376953 847.777099609375 139.6429901123047 L 847.777099609375 135.03298950195312 ZM 866.1146240234375 126.41299438476562 L 866.1146240234375 129.08299255371094 L 857.1646118164062 129.08299255371094 L 857.1646118164062 133.5229949951172 L 865.2046508789062 133.5229949951172 L 865.2046508789062 136.04299926757812 L 857.1646118164062 136.04299926757812 L 857.1646118164062 140.53298950195312 L 866.4046630859375 140.53298950195312 L 866.4046630859375 143.1929931640625 L 854.3346557617188 143.1929931640625 L 854.3346557617188 126.41299438476562 L 866.1146240234375 126.41299438476562 ZM 882.6002807617188 126.41299438476562 L 885.4402465820312 126.41299438476562 L 885.4402465820312 143.1929931640625 L 882.3602294921875 143.1929931640625 L 872.8602294921875 130.95298767089844 L 872.8602294921875 143.1929931640625 L 870.0302734375 143.1929931640625 L 870.0302734375 126.41299438476562 L 872.8602294921875 126.41299438476562 L 882.6002807617188 138.9429931640625 L 882.6002807617188 126.41299438476562 Z" transform="matrix(8.226460456848145, 0, 0, 8.051742553710938, -5936.22216796875, -410.9841613769531)" style="fill: rgb(255, 255, 255); white-space: pre; color: rgb(51, 51, 51);"/><path style="fill:#c6ced5; stroke:none;" d="M129.333 256.667C129.278 256.722 129.222 257.778 129.667 257.333C129.722 257.278 129.778 256.222 129.333 256.667z" transform="matrix(2.8488373756408687, 0, 0, 2.8488373756408687, 254.98109219687262, -138.5548343351091)"/><path style="fill:#8190a0; stroke:none;" d="M130.333 259.667C130.278 259.722 130.222 260.778 130.667 260.333C130.722 260.278 130.778 259.222 130.333 259.667z" transform="matrix(2.8488373756408687, 0, 0, 2.8488373756408687, 254.98109219687262, -138.5548343351091)"/><path style="fill:#c4ccd4; stroke:none;" d="M130.333 300.667C130.278 300.722 130.222 301.778 130.667 301.333C130.722 301.278 130.778 300.222 130.333 300.667z" transform="matrix(2.8488373756408687, 0, 0, 2.8488373756408687, 254.98109219687262, -138.5548343351091)"/><path style="fill:#a8b3bd; stroke:none;" d="M215 301L215 304C215.696 302.446 215.696 302.554 215 301z" transform="matrix(2.8488373756408687, 0, 0, 2.8488373756408687, 254.98109219687262, -138.5548343351091)"/><path style="fill:#6b7d90; stroke:none;" d="M265 301L265 304C265.696 302.446 265.696 302.554 265 301z" transform="matrix(2.8488373756408687, 0, 0, 2.8488373756408687, 254.98109219687262, -138.5548343351091)"/><path style="fill:#5b7085; stroke:none;" d="M214 302L214 306C214.71 304.241 214.71 303.759 214 302z" transform="matrix(2.8488373756408687, 0, 0, 2.8488373756408687, 254.98109219687262, -138.5548343351091)"/><path style="fill:#a3aeba; stroke:none;" d="M131.333 304.667C131.278 304.722 131.222 305.778 131.667 305.333C131.722 305.278 131.778 304.222 131.333 304.667z" transform="matrix(2.8488373756408687, 0, 0, 2.8488373756408687, 254.98109219687262, -138.5548343351091)"/><path style="fill:#a8b2bd; stroke:none;" d="M265 304L265 307C265.696 305.446 265.696 305.554 265 304z" transform="matrix(2.8488373756408687, 0, 0, 2.8488373756408687, 254.98109219687262, -138.5548343351091)"/><path style="fill:#627689; stroke:none;" d="M213 306L213 309C213.696 307.446 213.696 307.554 213 306z" transform="matrix(2.8488373756408687, 0, 0, 2.8488373756408687, 254.98109219687262, -138.5548343351091)"/><path style="fill:#cfd4db; stroke:none;" d="M214.333 306.667C214.278 306.722 214.222 307.778 214.667 307.333C214.722 307.278 214.778 306.222 214.333 306.667z" transform="matrix(2.8488373756408687, 0, 0, 2.8488373756408687, 254.98109219687262, -138.5548343351091)"/><path style="fill:#8897a6; stroke:none;" d="M266 306L266 309C266.696 307.446 266.696 307.554 266 306z" transform="matrix(2.8488373756408687, 0, 0, 2.8488373756408687, 254.98109219687262, -138.5548343351091)"/><path style="fill: rgb(255, 255, 255); stroke: none;" d="M62 20.6127C41.486 26.0471 45 49.7867 45 66C45 72.4481 44.0247 79.8058 46.1049 86C48.1477 92.0826 52.1953 97.1156 58 99.9414C63.3541 102.548 69.2125 102 75 102L102 102L203 102C221.832 102 245.918 97.4361 259.319 114.039C269.905 127.154 266 148.231 266 164L266 272C266 285.486 262.217 304.867 271.681 315.826C281.404 327.087 301.658 323 315 323C320.641 323 326.457 323.424 332 322.177C339.999 320.378 345.933 313.802 348.072 306C349.648 300.248 349 293.905 349 288L349 258L349 93L349 53C349 44.7122 349.456 36.1274 344.351 29.0146C338.243 20.5042 328.532 20 319 20L276 20L130 20L85 20C77.722 20 69.0726 18.739 62 20.6127z" transform="matrix(1.0846666097640991, 0, 0, 1.0846666097640991, -24.545526760646794, 404.83679774496903)"/></svg>