<svg height="512" viewBox="0 0 512 512" width="512" xmlns="http://www.w3.org/2000/svg"><g id="Flat"><path d="m346.58008 378.08a152.07132 152.07132 0 0 1 -181.16016 0l2.58008-18.08a65.22657 65.22657 0 0 1 64.57007-56h46.86011a65.22632 65.22632 0 0 1 64.56982 56z" fill="#8acce7"/><path d="m312 224v.402a37.65682 37.65682 0 0 0 11.02943 26.62739 16.97054 16.97054 0 0 1 4.97056 12 16.97054 16.97054 0 0 1 -16.97054 16.97061h-110.0589a16.97054 16.97054 0 0 1 -16.97055-16.97055 16.97054 16.97054 0 0 1 4.97056-12 37.65682 37.65682 0 0 0 11.02944-26.62745v-16.4021a55.99994 55.99994 0 0 1 55.99994-55.9999h.00012a55.99994 55.99994 0 0 1 55.99994 55.99994z" fill="#3e5066"/><path d="m208 216h16a0 0 0 0 1 0 0v32a0 0 0 0 1 0 0h-16a16 16 0 0 1 -16-16 16 16 0 0 1 16-16z" fill="#f2c194"/><path d="m304 216h16a0 0 0 0 1 0 0v32a0 0 0 0 1 0 0h-16a16 16 0 0 1 -16-16 16 16 0 0 1 16-16z" fill="#f2c194" transform="matrix(-1 0 0 -1 608 464)"/><path d="m272 264v40a16 16 0 0 1 -32 0v-40z" fill="#f4ceaf"/><path d="m272 264v29.66992a56.09878 56.09878 0 0 1 -32 0v-29.66992z" fill="#f2c194"/><path d="m296 178.59644v61.40356a40 40 0 0 1 -40 40 40 40 0 0 1 -40-40v-61.4036z" fill="#f4ceaf"/><path d="m312 208v10.14a15.91477 15.91477 0 0 0 -8-2.14h-8a22.1872 22.1872 0 0 1 -21.06006-15.18l-3.75976-11.28c-4.86036-14.59-25.50025-14.59-30.36011 0l-3.76 11.28a22.198 22.198 0 0 1 -21.06007 15.18h-8a15.91477 15.91477 0 0 0 -8 2.14v-10.14a56 56 0 1 1 112 0z" fill="#3e5066"/><circle cx="240" cy="232" fill="#3e5066" r="8"/><circle cx="272" cy="232" fill="#3e5066" r="8"/><path d="m256 416c-88.22461 0-160-71.77588-160-160s71.77539-160 160-160 160 71.77588 160 160-71.77539 160-160 160zm0-304c-79.40234 0-144 64.59814-144 144s64.59766 144 144 144 144-64.59814 144-144-64.59766-144-144-144z" fill="#eedc9a"/><path d="m256 440c-101.458 0-184-82.542-184-184s82.542-184 184-184 184 82.542 184 184-82.542 184-184 184zm0-352c-92.63574 0-168 75.36426-168 168s75.36426 168 168 168 168-75.36426 168-168-75.36426-168-168-168z" fill="#eedc9a"/><g fill="#e44042"><path d="m248 56h16v72h-16z"/><path d="m384 248h72v16h-72z"/><path d="m248 384h16v72h-16z"/><path d="m56 248h72v16h-72z"/></g><path d="m357.65723 165.65674-11.31446-11.31348 32-32a8.00076 8.00076 0 0 1 5.65723-2.34326h112v16h-108.68652z" fill="#2d80b3"/><path d="m400 56h32v16h-32z" fill="#2f4054"/><path d="m448 56h48v16h-48z" fill="#2f4054"/><path d="m392 88h32v16h-32z" fill="#2f4054"/><path d="m440 88h56v16h-56z" fill="#2f4054"/><path d="m496 400h-104a8.00076 8.00076 0 0 1 -5.65723-2.34326l-32-32 11.31446-11.31348 29.65625 29.65674h100.68652z" fill="#2d80b3"/><path d="m392 408h48v16h-48z" fill="#2f4054"/><path d="m456 408h40v16h-40z" fill="#2f4054"/><path d="m368 440h48v16h-48z" fill="#2f4054"/><path d="m432 440h32v16h-32z" fill="#2f4054"/><path d="m154.34277 165.65674-29.65625-29.65674h-108.68652v-16h112a8.00076 8.00076 0 0 1 5.65723 2.34326l32 32z" fill="#2d80b3"/><path d="m48 56h32v16h-32z" fill="#2f4054"/><path d="m96 56h48v16h-48z" fill="#2f4054"/><path d="m40 88h32v16h-32z" fill="#2f4054"/><path d="m88 88h56v16h-56z" fill="#2f4054"/><path d="m120 400h-104v-16h100.68652l29.65625-29.65674 11.31446 11.31348-32 32a8.00076 8.00076 0 0 1 -5.65723 2.34326z" fill="#2d80b3"/><path d="m40 408h48v16h-48z" fill="#2f4054"/><path d="m104 408h40v16h-40z" fill="#2f4054"/><path d="m16 440h48v16h-48z" fill="#2f4054"/><path d="m80 440h32v16h-32z" fill="#2f4054"/></g></svg>