 <svg version="1.0" xmlns="http://www.w3.org/2000/svg" width="700.000000pt" height="731.000000pt" viewBox="0 0 700.000000 731.000000" preserveAspectRatio="xMidYMid meet">
<metadata>
Created by potrace 1.12, written by Peter Selinger 2001-2015
</metadata>
<g transform="translate(0.000000,731.000000) scale(0.100000,-0.100000)" fill="#000000" stroke="none">
<path d="M2494 6176 c-55 -17 -127 -70 -158 -115 -54 -78 -56 -90 -56 -383 l0
-273 29 -60 c34 -73 98 -133 167 -158 46 -16 124 -17 1121 -17 1057 0 1073 0
1127 -21 69 -25 147 -95 178 -157 l23 -47 5 -1100 c5 -1097 5 -1100 26 -1146
30 -64 88 -125 148 -157 l51 -27 277 -3 278 -3 60 27 c68 30 132 93 161 159
19 42 19 84 17 1667 l-3 1623 -28 47 c-35 58 -86 104 -146 132 l-46 21 -1595
2 c-1287 1 -1603 -1 -1636 -11z"></path>
<path d="M2483 4551 c-67 -23 -118 -62 -154 -120 -48 -75 -51 -96 -47 -396 l3
-280 27 -45 c34 -58 81 -102 138 -132 43 -22 56 -23 335 -28 270 -5 293 -6
337 -27 66 -30 133 -96 165 -162 l28 -56 5 -295 c5 -289 5 -296 29 -335 40
-66 83 -106 146 -136 l60 -29 266 0 c321 0 334 3 424 94 101 101 95 45 95 935
0 893 6 837 -94 937 -100 100 -43 94 -940 94 -714 -1 -775 -2 -823 -19z"></path>
<path d="M2360 2938 c-68 -46 -80 -77 -80 -203 0 -126 12 -157 79 -202 30 -21
46 -23 146 -23 100 0 116 2 146 23 67 45 79 76 79 202 0 100 -2 116 -22 145
-45 66 -67 75 -196 78 -109 3 -119 2 -152 -20z"></path>
<path d="M3713 2375 c-172 -47 -270 -164 -280 -339 -11 -167 62 -298 205 -368
65 -32 70 -33 192 -33 133 0 202 17 270 65 l30 21 0 150 0 149 -80 0 -80 0 0
-105 0 -104 -30 -16 c-38 -20 -150 -20 -198 1 -85 35 -131 110 -132 212 0 147
109 244 256 229 54 -6 121 -34 143 -61 21 -25 33 -20 86 34 49 49 49 49 29 71
-78 88 -270 132 -411 94z"></path>
<path d="M325 2371 c-3 -6 12 -61 33 -123 75 -216 192 -577 192 -592 0 -14 17
-16 105 -16 78 0 105 3 104 13 -1 25 146 456 155 454 5 -2 19 -37 32 -78 12
-40 45 -144 72 -229 l50 -155 101 -3 c82 -2 101 0 101 11 0 8 52 171 115 362
63 191 112 352 109 356 -8 14 -150 11 -161 -3 -5 -7 -33 -87 -62 -178 -70
-220 -97 -300 -104 -307 -8 -8 -18 19 -67 177 -60 193 -97 301 -108 312 -5 5
-42 8 -83 6 l-74 -3 -80 -242 c-44 -134 -84 -243 -90 -243 -9 0 -58 146 -133
395 l-27 90 -87 3 c-51 2 -89 -1 -93 -7z"></path>
<path d="M1597 2374 c-4 -4 -7 -171 -7 -371 l0 -363 88 0 87 0 0 147 0 148
165 0 165 0 1 -150 c1 -104 5 -150 13 -149 6 1 45 2 86 3 l75 1 -2 368 -3 367
-84 0 -84 0 2 -142 c2 -96 -1 -143 -8 -143 -6 -1 -78 -1 -161 -1 -82 0 -155 0
-161 1 -8 0 -10 43 -8 143 l4 142 -80 3 c-45 1 -84 0 -88 -4z"></path>
<path d="M2440 2373 c0 -4 -1 -172 -1 -373 0 -244 4 -365 11 -364 5 1 44 2 85
3 l75 1 -2 368 -3 367 -82 3 c-46 2 -83 -1 -83 -5z"></path>
<path d="M2749 2375 c0 -3 -1 -35 -1 -72 l-1 -66 185 2 c119 2 188 -1 192 -8
4 -6 -9 -27 -27 -48 -19 -21 -107 -126 -196 -233 l-161 -195 0 -57 0 -58 315
0 c173 0 318 0 323 0 4 0 7 30 7 68 l0 67 -202 3 c-112 1 -203 5 -203 7 0 6
322 398 362 441 26 28 29 37 26 90 l-3 59 -307 3 c-170 1 -308 0 -309 -3z"></path>
<path d="M4297 2373 c-4 -3 -7 -170 -7 -370 l0 -363 290 0 291 0 -3 68 -3 67
-198 5 -199 5 -1 72 c0 40 3 76 7 80 4 4 80 8 169 8 l162 0 3 67 3 68 -172 2
-173 3 2 70 c0 39 1 74 2 78 0 4 86 7 192 6 l191 -1 1 68 1 69 -276 3 c-151 1
-278 -1 -282 -5z"></path>
<path d="M4997 2373 c-4 -3 -7 -170 -7 -370 l0 -363 91 0 91 0 -3 210 c-3 159
-1 210 8 210 7 0 16 -7 20 -15 5 -8 80 -102 168 -210 l160 -195 63 -1 c34 -1
67 -2 72 -3 7 -1 11 119 11 369 l0 370 -83 0 -83 0 -5 -215 -5 -214 -46 54
c-43 52 -125 153 -252 309 l-58 71 -68 0 c-37 0 -71 -3 -74 -7z"></path>
</g>
</svg>